<svg width="776" height="292" viewBox="0 0 776 292" fill="none" xmlns="http://www.w3.org/2000/svg">
<path fill-rule="evenodd" clip-rule="evenodd" d="M776 0.123736C776 97.1237 776 194.124 776 291.124C517.333 291.124 258.667 291.124 0 291.124C0 194.457 0 97.7907 0 1.12374C0.90128 1.91374 1.56795 2.91374 2 4.12374C4.23396 6.06974 6.90062 7.23674 10 7.62374C22.6702 8.22374 35.3368 8.89074 48 9.62374C77.9964 9.32474 107.996 9.32474 138 9.62374C154.544 13.0327 171.211 13.8657 188 12.1237C187.797 10.2337 188.463 8.73374 190 7.62374C192.809 6.53074 195.476 5.36374 198 4.12374C200.488 3.94074 202.488 2.94074 204 1.12374C394.627 0.125736 585.293 -0.207264 776 0.123736Z" fill="#A7292C"/>
<path fill-rule="evenodd" clip-rule="evenodd" d="M78.5 66.5C78.5 66.833 78.5 67.167 78.5 67.5C58.787 67.821 39.1204 67.488 19.5 66.5C18.8302 68.291 18.1635 69.958 17.5 71.5C17.5 69.5 17.5 67.5 17.5 65.5C37.8135 66.427 58.1468 66.76 78.5 66.5Z" fill="#A7292C"/>
<path fill-rule="evenodd" clip-rule="evenodd" d="M78.5 67.5C78.5 67.167 78.5 66.833 78.5 66.5C81.8333 66.5 85.1667 66.5 88.5 66.5C88.5 68.167 88.5 69.833 88.5 71.5C87.7515 70.469 87.0848 69.302 86.5 68C83.854 67.503 81.1873 67.336 78.5 67.5Z" fill="#E4BEBB"/>
<path fill-rule="evenodd" clip-rule="evenodd" d="M570.5 65.5001C574.95 65.1421 578.45 66.8081 581 70.5001C584.726 84.3841 580.226 94.7171 567.5 101.5C566.28 101.113 565.613 100.28 565.5 99.0001C568.278 96.5001 570.778 93.6671 573 90.5001C573.497 88.1901 573.663 85.8571 573.5 83.5001C565.181 83.6561 562.348 79.6561 565 71.5001C566.36 68.9771 568.193 66.9771 570.5 65.5001Z" fill="#FCF9F8"/>
<path fill-rule="evenodd" clip-rule="evenodd" d="M78.5 67.5C81.1873 67.336 83.854 67.503 86.5 68C87.0848 69.302 87.7515 70.469 88.5 71.5C88.8333 78.167 89.1667 84.833 89.5 91.5C88.0222 91.762 86.6888 91.429 85.5 90.5C82.3733 83.401 77.7066 77.568 71.5 73C68.3307 72.022 65.4973 72.522 63 74.5C62.3333 91.5 62.3333 108.5 63 125.5C64.5122 130.849 68.0122 133.183 73.5 132.5C73.5 133.5 73.5 134.5 73.5 135.5C60.2459 136.481 46.9125 136.814 33.5 136.5C32.2089 135.458 32.2089 134.292 33.5 133C37.5285 132.572 40.6951 130.738 43 127.5C43.6667 109.833 43.6667 92.167 43 74.5C40.0316 72.009 36.8649 71.843 33.5 74C27.4115 78.519 22.7448 84.186 19.5 91C18.2068 91.49 16.8734 91.657 15.5 91.5C16.1667 84.833 16.8333 78.167 17.5 71.5C18.1635 69.958 18.8302 68.291 19.5 66.5C39.1204 67.488 58.787 67.821 78.5 67.5Z" fill="#FDFBFB"/>
<path fill-rule="evenodd" clip-rule="evenodd" d="M281.5 74.5C281.082 73.778 280.416 73.278 279.5 73C277.333 72.833 275.167 72.667 273 72.5C269.757 72.307 266.757 72.973 264 74.5C263.5 82.827 263.334 91.16 263.5 99.5C266.518 99.665 269.518 99.498 272.5 99C273.942 98.623 274.942 97.79 275.5 96.5C278.407 94.685 279.741 92.019 279.5 88.5C281.167 88.5 282.833 88.5 284.5 88.5C284.818 97.751 284.485 106.917 283.5 116C282.216 116.684 281.049 116.517 280 115.5C277.908 107.02 272.408 103.354 263.5 104.5C263.334 112.174 263.5 119.841 264 127.5C266.039 131.136 269.206 132.802 273.5 132.5C273.5 133.5 273.5 134.5 273.5 135.5C260.496 135.667 247.496 135.5 234.5 135C236.359 133.019 238.692 132.019 241.5 132C243.037 130.89 243.703 129.39 243.5 127.5C243.667 110.497 243.5 93.497 243 76.5C240.825 73.819 237.992 72.153 234.5 71.5C233.571 70.311 233.238 68.978 233.5 67.5C254.833 67.5 276.167 67.5 297.5 67.5C297.833 75.5 298.167 83.5 298.5 91.5C297.127 91.657 295.793 91.49 294.5 91C293.11 82.997 288.777 77.497 281.5 74.5Z" fill="#FBF8F7"/>
<path fill-rule="evenodd" clip-rule="evenodd" d="M486.5 64.5C495.498 64.329 499.331 68.662 498 77.5C495.103 82.155 490.937 83.655 485.5 82C478.693 75.803 479.026 69.969 486.5 64.5Z" fill="#FAF9F8"/>
<path fill-rule="evenodd" clip-rule="evenodd" d="M98.5 79.5C99.662 95.995 99.828 112.662 99 129.5C98.6174 130.056 98.1174 130.389 97.5 130.5C98.4718 113.547 98.8051 96.547 98.5 79.5Z" fill="#A7292C"/>
<path fill-rule="evenodd" clip-rule="evenodd" d="M281.5 74.5003C276.167 74.5003 270.833 74.5003 265.5 74.5003C264.724 82.4753 264.39 90.4753 264.5 98.5003C268.331 98.5843 271.998 97.9173 275.5 96.5003C274.942 97.7903 273.942 98.6233 272.5 99.0003C269.518 99.4983 266.518 99.6653 263.5 99.5003C263.334 91.1603 263.5 82.8273 264 74.5003C266.757 72.9733 269.757 72.3073 273 72.5003C275.167 72.6673 277.333 72.8333 279.5 73.0003C280.416 73.2783 281.082 73.7783 281.5 74.5003Z" fill="#A7292C"/>
<path fill-rule="evenodd" clip-rule="evenodd" d="M471.5 129.5C471.5 130.833 471.5 132.167 471.5 133.5C468.572 133.565 465.905 134.232 463.5 135.5C458.811 136.519 454.144 137.519 449.5 138.5C450.501 131.373 449.167 130.373 445.5 135.5C428.997 141.998 418.497 136.665 414 119.5C412.147 106.701 416.981 97.535 428.5 92C435.056 89.722 441.389 90.222 447.5 93.5C448.662 88.869 448.828 84.202 448 79.5C446.535 77.085 444.368 76.085 441.5 76.5C441.5 74.833 441.5 73.167 441.5 71.5C449.235 69.753 456.735 67.086 464 63.5C464.772 63.645 465.439 63.978 466 64.5C465.419 85.143 465.419 105.81 466 126.5C467.264 128.607 469.097 129.607 471.5 129.5Z" fill="#FBF9F8"/>
<path fill-rule="evenodd" clip-rule="evenodd" d="M140.5 92.5C143.223 95.062 145.389 98.062 147 101.5C147.333 110.5 147.667 119.5 148 128.5C149.312 131.581 151.645 133.248 155 133.5C155.483 134.448 155.649 135.448 155.5 136.5C145.833 136.5 136.167 136.5 126.5 136.5C126.167 136.5 125.833 136.5 125.5 136.5C125.351 135.448 125.517 134.448 126 133.5C128.056 132.417 129.389 130.75 130 128.5C130.823 119.99 130.657 111.656 129.5 103.5C129.67 102.178 129.337 101.011 128.5 100C122.888 98.14 119.221 99.973 117.5 105.5C116.344 112.989 116.178 120.655 117 128.5C118.715 130.935 119.882 133.602 120.5 136.5C111.167 136.5 101.833 136.5 92.4999 136.5C91.4264 135.749 91.2598 134.749 91.9999 133.5C94.2091 133.011 96.0424 132.011 97.4999 130.5C98.1173 130.389 98.6173 130.056 98.9999 129.5C99.8279 112.662 99.6619 95.995 98.4999 79.5C97.3932 77.031 95.3932 76.031 92.4999 76.5C92.2147 74.712 92.548 73.045 93.4999 71.5C101.294 69.098 108.961 66.431 116.5 63.5C116.333 75.171 116.5 86.838 117 98.5C123.19 90.342 131.023 88.342 140.5 92.5Z" fill="#FCFAF9"/>
<path fill-rule="evenodd" clip-rule="evenodd" d="M176.5 90.5002C184.01 89.6522 191.01 91.1522 197.5 95.0002C202.997 99.1602 205.33 104.66 204.5 111.5C194.833 111.5 185.167 111.5 175.5 111.5C175.335 115.182 175.501 118.848 176 122.5C177.878 129.526 182.378 132.026 189.5 130C193.714 129.226 197.381 127.393 200.5 124.5C201.833 125.167 202.833 126.167 203.5 127.5C193.835 138.998 182.169 141.498 168.5 135C158.359 127.646 155.025 117.813 158.5 105.5C162.242 97.6502 168.242 92.6502 176.5 90.5002Z" fill="#FBF8F7"/>
<path fill-rule="evenodd" clip-rule="evenodd" d="M314.5 90.4999C339.447 88.8209 349.947 100.154 346 124.5C340.519 134.494 332.019 139.16 320.5 138.5C302.653 137.149 294.153 127.482 295 109.5C298.121 99.5439 304.621 93.2099 314.5 90.4999Z" fill="#FBF8F7"/>
<path fill-rule="evenodd" clip-rule="evenodd" d="M505.5 136.5C495.167 136.5 484.833 136.5 474.5 136.5C474.5 135.167 474.5 133.833 474.5 132.5C477.561 132.556 479.728 131.222 481 128.5C481.823 120.323 481.656 112.323 480.5 104.5C478.898 102.926 476.898 102.259 474.5 102.5C474.5 100.833 474.5 99.167 474.5 97.5C482.921 95.358 491.255 93.025 499.5 90.5C498.413 103.141 498.246 115.807 499 128.5C500.715 131.397 503.215 132.731 506.5 132.5C506.768 134.099 506.434 135.432 505.5 136.5Z" fill="#FCFAF9"/>
<path fill-rule="evenodd" clip-rule="evenodd" d="M528.5 90.5002C536.01 89.6522 543.01 91.1522 549.5 95.0002C554.997 99.1602 557.33 104.66 556.5 111.5C546.833 111.5 537.167 111.5 527.5 111.5C527.335 115.182 527.501 118.848 528 122.5C529.878 129.526 534.378 132.026 541.5 130C545.714 129.226 549.381 127.393 552.5 124.5C553.833 125.167 554.833 126.167 555.5 127.5C545.835 138.998 534.169 141.498 520.5 135C510.86 128.329 507.36 119.162 510 107.5C513.215 98.4452 519.382 92.7782 528.5 90.5002Z" fill="#FBF8F7"/>
<path fill-rule="evenodd" clip-rule="evenodd" d="M598.5 90.5C605.556 90.682 612.556 91.349 619.5 92.5C619.5 96.833 619.5 101.167 619.5 105.5C618.127 105.657 616.793 105.49 615.5 105C612.592 96.369 607.092 93.869 599 97.5C597.959 100.636 598.793 103.136 601.5 105C607.417 107.631 613.084 110.631 618.5 114C622.203 117.396 623.369 121.563 622 126.5C617.428 134.879 610.261 138.879 600.5 138.5C595.161 137.495 589.828 136.495 584.5 135.5C584.46 130.807 584.127 126.141 583.5 121.5C587.224 121.05 589.391 122.717 590 126.5C592.205 129.04 594.705 131.207 597.5 133C604.983 134.689 607.817 131.856 606 124.5C599.723 121.186 593.556 117.686 587.5 114C583.021 107.124 583.688 100.791 589.5 95C592.592 93.454 595.592 91.954 598.5 90.5Z" fill="#FBF8F7"/>
<path fill-rule="evenodd" clip-rule="evenodd" d="M373.5 90.5003C388.602 88.4643 399.435 94.1303 406 107.5C407.399 131.092 396.232 141.259 372.5 138C360.837 134.501 354.504 126.668 353.5 114.5C354.776 101.899 361.443 93.8993 373.5 90.5003Z" fill="#FBF9F8"/>
<path fill-rule="evenodd" clip-rule="evenodd" d="M140.5 92.5C142.84 93.086 145.007 94.086 147 95.5C148.207 100.122 149.207 104.789 150 109.5C150.676 105.156 152.176 101.156 154.5 97.5C156.086 99.173 156.753 101.173 156.5 103.5C152.282 103.555 151.282 105.388 153.5 109C152.871 114.735 151.871 120.401 150.5 126C151.28 128.404 152.947 129.904 155.5 130.5C156.297 132.132 157.297 133.632 158.5 135C157.556 136.477 156.223 137.477 154.5 138C149.833 138.167 145.167 138.333 140.5 138.5C135.449 138.493 130.783 137.827 126.5 136.5C136.167 136.5 145.833 136.5 155.5 136.5C155.649 135.448 155.483 134.448 155 133.5C151.645 133.248 149.312 131.581 148 128.5C147.667 119.5 147.333 110.5 147 101.5C145.389 98.062 143.223 95.062 140.5 92.5Z" fill="#A7292C"/>
<path fill-rule="evenodd" clip-rule="evenodd" d="M377.5 95.4998C382.988 94.8168 386.488 97.1508 388 102.5C388.876 111.23 388.542 119.896 387 128.5C386.15 132.102 383.817 133.769 380 133.5C376.18 133.353 373.847 131.353 373 127.5C372.333 118.833 372.333 110.167 373 101.5C373.804 98.8538 375.304 96.8538 377.5 95.4998Z" fill="#A7292C"/>
<path fill-rule="evenodd" clip-rule="evenodd" d="M437.5 96.5C439.857 96.337 442.19 96.503 444.5 97C446.333 97.5 447.5 98.667 448 100.5C448.667 108.833 448.667 117.167 448 125.5C446.062 130.458 442.562 132.291 437.5 131C435.19 129.363 433.69 127.196 433 124.5C432.333 117.5 432.333 110.5 433 103.5C433.53 100.415 435.03 98.082 437.5 96.5Z" fill="#A7292C"/>
<path fill-rule="evenodd" clip-rule="evenodd" d="M318.5 95.5003C324.508 94.9173 328.008 97.5843 329 103.5C329.87 111.897 329.537 120.23 328 128.5C327.15 132.102 324.817 133.769 321 133.5C316.392 133.007 314.058 130.341 314 125.5C313.333 117.5 313.333 109.5 314 101.5C314.804 98.8543 316.304 96.8543 318.5 95.5003Z" fill="#A7292C"/>
<path fill-rule="evenodd" clip-rule="evenodd" d="M179.5 95.5001C186.276 94.7761 189.11 97.7761 188 104.5C187.5 105 187 105.5 186.5 106C183.183 106.498 179.85 106.665 176.5 106.5C176.12 102.429 177.12 98.7621 179.5 95.5001Z" fill="#A7292C"/>
<path fill-rule="evenodd" clip-rule="evenodd" d="M531.5 95.5001C538.276 94.7761 541.11 97.7761 540 104.5C539.5 105 539 105.5 538.5 106C535.183 106.498 531.85 106.665 528.5 106.5C528.12 102.429 529.12 98.7621 531.5 95.5001Z" fill="#A7292C"/>
<path fill-rule="evenodd" clip-rule="evenodd" d="M129.5 103.5C129.666 111.174 129.5 118.841 129 126.5C126.977 129.362 125.144 132.362 123.5 135.5C122.228 132.404 120.394 129.737 118 127.5C117.5 120.174 117.334 112.841 117.5 105.5C119.221 99.9729 122.888 98.1399 128.5 99.9999C129.337 101.011 129.67 102.178 129.5 103.5Z" fill="#A7292C"/>
<path fill-rule="evenodd" clip-rule="evenodd" d="M129.5 103.5C130.657 111.656 130.823 119.99 130 128.5C129.389 130.75 128.056 132.417 126 133.5C125.517 134.448 125.351 135.448 125.5 136.5C114.359 137.776 103.359 137.776 92.5 136.5C101.833 136.5 111.167 136.5 120.5 136.5C119.882 133.602 118.715 130.935 117 128.5C116.178 120.655 116.344 112.989 117.5 105.5C117.334 112.841 117.5 120.174 118 127.5C120.394 129.737 122.228 132.404 123.5 135.5C125.144 132.362 126.977 129.362 129 126.5C129.5 118.841 129.666 111.174 129.5 103.5Z" fill="#A7292C"/>
<path fill-rule="evenodd" clip-rule="evenodd" d="M480.5 104.5C481.656 112.323 481.823 120.323 481 128.5C479.728 131.222 477.561 132.556 474.5 132.5C474.5 133.833 474.5 135.167 474.5 136.5C484.833 136.5 495.167 136.5 505.5 136.5C494.326 137.824 482.993 137.824 471.5 136.5C472.999 135.096 472.666 134.43 470.5 134.5C468.218 135.223 465.884 135.557 463.5 135.5C465.905 134.232 468.572 133.565 471.5 133.5C471.5 132.167 471.5 130.833 471.5 129.5C474.761 131.934 477.594 131.268 480 127.5C480.5 119.841 480.666 112.174 480.5 104.5Z" fill="#A7292C"/>
<path fill-rule="evenodd" clip-rule="evenodd" d="M243.5 127.5C243.703 129.39 243.037 130.89 241.5 132C238.692 132.019 236.359 133.019 234.5 135C247.496 135.5 260.496 135.667 273.5 135.5C273.5 134.5 273.5 133.5 273.5 132.5C274.434 133.568 274.768 134.901 274.5 136.5C260.833 136.5 247.167 136.5 233.5 136.5C233.238 135.022 233.571 133.689 234.5 132.5C238.333 132.089 241.333 130.422 243.5 127.5Z" fill="#FDE2E4"/>
<path fill-rule="evenodd" clip-rule="evenodd" d="M73.5 135.5C67.2017 136.83 60.5351 137.497 53.5 137.5C46.6581 137.5 39.9914 137.166 33.5 136.5C46.9125 136.814 60.2459 136.481 73.5 135.5Z" fill="#A7292C"/>
<path fill-rule="evenodd" clip-rule="evenodd" d="M717.5 166.5C712.227 166.705 706.894 166.038 701.5 164.5C698.721 163.327 698.054 161.493 699.5 159C698.207 158.51 696.873 158.343 695.5 158.5C695.841 161.516 697.007 164.182 699 166.5C699.333 165.833 699.667 165.167 700 164.5C700.465 165.931 701.299 167.097 702.5 168C699.887 168.073 697.554 167.239 695.5 165.5C695.288 163.616 694.288 162.283 692.5 161.5C691.548 159.955 691.215 158.288 691.5 156.5C692.458 156.953 693.292 157.619 694 158.5C694.451 155.222 695.951 152.556 698.5 150.5C704.992 142.51 713.158 137.177 723 134.5C728.037 135.194 731.704 137.86 734 142.5C734.667 146.167 734.667 149.833 734 153.5C729.486 159.192 723.986 163.525 717.5 166.5Z" fill="#F3E6E6"/>
<path fill-rule="evenodd" clip-rule="evenodd" d="M698.5 150.5C695.951 152.556 694.451 155.222 694 158.5C693.292 157.619 692.458 156.953 691.5 156.5C693.239 153.757 695.573 151.757 698.5 150.5Z" fill="#D5A3A5"/>
<path fill-rule="evenodd" clip-rule="evenodd" d="M717.5 166.5C711.428 166.946 705.428 168.28 699.5 170.5C696.996 169.85 695.663 168.183 695.5 165.5C697.554 167.239 699.887 168.073 702.5 168C701.299 167.097 700.465 165.931 700 164.5C699.667 165.167 699.333 165.833 699 166.5C697.007 164.182 695.841 161.516 695.5 158.5C696.873 158.343 698.207 158.51 699.5 159C698.054 161.493 698.721 163.327 701.5 164.5C706.894 166.038 712.227 166.705 717.5 166.5Z" fill="#E7C8CB"/>
<path fill-rule="evenodd" clip-rule="evenodd" d="M198.5 164.5C206.981 164.814 210.481 169.147 209 177.5C206.103 182.155 201.937 183.655 196.5 182C189.394 175.155 190.061 169.321 198.5 164.5Z" fill="#FBF7F6"/>
<path fill-rule="evenodd" clip-rule="evenodd" d="M242.5 164.5C242.333 185.836 242.5 207.169 243 228.5C244.026 231.693 246.192 233.026 249.5 232.5C249.5 233.5 249.5 234.5 249.5 235.5C238.779 236.142 228.446 235.475 218.5 233.5C219.5 232.833 220.5 232.167 221.5 231.5C223.173 230.657 224.34 229.324 225 227.5C225.667 211.167 225.667 194.833 225 178.5C223.055 177.137 220.888 176.303 218.5 176C217.14 174.062 217.473 172.396 219.5 171C226.027 169.121 232.36 166.788 238.5 164C240.066 163.235 241.399 163.402 242.5 164.5Z" fill="#FCF9F9"/>
<path fill-rule="evenodd" clip-rule="evenodd" d="M286.5 234.5C285.003 233.694 283.336 233.028 281.5 232.5C280.833 227.015 280.167 221.681 279.5 216.5C279.5 215.167 279.5 213.833 279.5 212.5C281.144 212.286 282.644 212.62 284 213.5C286.189 222.357 291.356 228.857 299.5 233C311.729 235.109 316.229 230.276 313 218.5C305.935 212.716 298.435 207.55 290.5 203C280.842 195.424 279.008 186.258 285 175.5C290.729 168.699 298.063 165.365 307 165.5C313.228 166.24 319.395 167.407 325.5 169C326.476 175.076 326.81 181.242 326.5 187.5C325.167 187.5 323.833 187.5 322.5 187.5C321.687 180.025 318.02 174.525 311.5 171C304.078 169.536 299.411 172.369 297.5 179.5C298.18 182.36 299.513 184.86 301.5 187C311.133 192.401 319.967 198.901 328 206.5C333.274 223.586 327.107 234.086 309.5 238C301.302 239.378 293.636 238.211 286.5 234.5Z" fill="#FBF8F7"/>
<path fill-rule="evenodd" clip-rule="evenodd" d="M395.5 236.5C387.517 237.166 379.517 237.499 371.5 237.5C350.123 231.781 340.29 217.781 342 195.5C345.762 181.406 354.595 172.239 368.5 168C374.084 166.583 379.751 165.75 385.5 165.5C393.106 166.887 400.772 167.887 408.5 168.5C408.5 176.167 408.5 183.833 408.5 191.5C407.167 191.5 405.833 191.5 404.5 191.5C400.578 175.382 390.578 168.882 374.5 172C368.228 177.043 364.394 183.543 363 191.5C361.218 203.379 362.885 214.713 368 225.5C373.315 233.453 380.482 235.619 389.5 232C390.701 231.097 391.535 229.931 392 228.5C392.667 223.167 392.667 217.833 392 212.5C389.293 210.064 386.127 208.564 382.5 208C381.663 206.989 381.33 205.822 381.5 204.5C394.167 204.5 406.833 204.5 419.5 204.5C419.5 205.833 419.5 207.167 419.5 208.5C415.567 208.411 412.734 210.078 411 213.5C410.207 219.885 410.374 226.218 411.5 232.5C406.462 234.975 401.128 236.308 395.5 236.5Z" fill="#FBF8F7"/>
<path fill-rule="evenodd" clip-rule="evenodd" d="M75.5 176.5C71.9318 172.157 67.7652 171.49 63 174.5C62.3333 191.833 62.3333 209.167 63 226.5C64.5126 230.965 67.6793 232.965 72.5 232.5C72.5 233.5 72.5 234.5 72.5 235.5C59.8158 235.832 47.1492 235.499 34.5 234.5C35.3398 233.265 36.3398 232.265 37.5 231.5C40.0193 231.152 41.8526 229.819 43 227.5C43.6667 209.833 43.6667 192.167 43 174.5C40.0316 172.009 36.8649 171.843 33.5 174C26.9771 178.185 22.3104 183.852 19.5 191C18.2068 191.49 16.8734 191.657 15.5 191.5C16.1732 183.127 17.1732 174.794 18.5 166.5C41.8142 167.752 65.1476 167.752 88.5 166.5C88.9756 174.826 89.309 183.16 89.5 191.5C87.8561 191.714 86.3561 191.38 85 190.5C83.1734 184.855 80.0067 180.188 75.5 176.5Z" fill="#FDFBFB"/>
<path fill-rule="evenodd" clip-rule="evenodd" d="M686.5 165.5C689.295 167.751 691.628 170.418 693.5 173.5C689.742 172.244 687.075 169.744 685.5 166C685.728 165.601 686.062 165.435 686.5 165.5Z" fill="#D1A2A1"/>
<path fill-rule="evenodd" clip-rule="evenodd" d="M686.5 165.5C686.062 165.435 685.728 165.601 685.5 166C687.075 169.744 689.742 172.244 693.5 173.5C695.914 174.406 696.747 176.072 696 178.5C693.86 180.64 691.694 182.806 689.5 185C685.974 186.337 682.308 186.837 678.5 186.5C675.663 178.344 677.33 171.178 683.5 165C684.749 164.26 685.749 164.427 686.5 165.5Z" fill="#F5EAEA"/>
<path fill-rule="evenodd" clip-rule="evenodd" d="M242.5 164.5C243.167 185.004 243.833 205.671 244.5 226.5C246.217 227.668 246.884 229.335 246.5 231.5C250.677 230.842 252.177 232.508 251 236.5C249.13 237.743 246.964 238.41 244.5 238.5C223.153 237.858 201.819 237.191 180.5 236.5C182.103 235.404 183.603 234.07 185 232.5C185.483 233.448 185.649 234.448 185.5 235.5C206.833 236.833 228.167 236.833 249.5 235.5C249.5 234.5 249.5 233.5 249.5 232.5C246.192 233.026 244.026 231.693 243 228.5C242.5 207.169 242.333 185.836 242.5 164.5Z" fill="#A7292C"/>
<path fill-rule="evenodd" clip-rule="evenodd" d="M510.5 182.5C502.459 182.336 494.459 182.836 486.5 184C485.178 186.168 484.511 186.001 484.5 183.5C493.122 181.522 501.789 181.189 510.5 182.5Z" fill="#D29B9A"/>
<path fill-rule="evenodd" clip-rule="evenodd" d="M510.5 182.5C516.858 184.548 519.025 188.881 517 195.5C516.017 197.448 514.85 199.282 513.5 201C507.207 202.275 500.874 202.608 494.5 202C492.5 200.667 490.5 199.333 488.5 198C485.666 197.955 483.166 197.121 481 195.5C481.52 191.185 482.687 187.185 484.5 183.5C484.511 186.001 485.178 186.168 486.5 184C494.459 182.836 502.459 182.336 510.5 182.5Z" fill="#EDD9D9"/>
<path fill-rule="evenodd" clip-rule="evenodd" d="M106.5 190.5C106.183 193.572 106.516 196.572 107.5 199.5C108.107 199.376 108.44 199.043 108.5 198.5C113.308 190.396 119.975 188.396 128.5 192.5C132.922 200.748 130.588 205.415 121.5 206.5C118.793 204.628 115.959 202.961 113 201.5C110.849 201.643 109.182 202.643 108 204.5C107.333 212.5 107.333 220.5 108 228.5C108.422 230.426 109.589 231.426 111.5 231.5C112.568 232.434 113.901 232.768 115.5 232.5C115.5 233.5 115.5 234.5 115.5 235.5C104.833 235.5 94.1667 235.5 83.5 235.5C83.5 234.5 83.5 233.5 83.5 232.5C85.5529 232.598 87.2196 231.931 88.5 230.5C89.2216 230.082 89.7216 229.416 90 228.5C90.6667 220.167 90.6667 211.833 90 203.5C88.4157 202.139 86.5824 201.472 84.5 201.5C84.238 200.022 84.5713 198.689 85.5 197.5C91.6147 195.276 97.6147 192.776 103.5 190C104.749 189.26 105.749 189.427 106.5 190.5Z" fill="#FCF9F9"/>
<path fill-rule="evenodd" clip-rule="evenodd" d="M210.5 199.5C209.342 208.991 209.175 218.658 210 228.5C211.805 230.826 213.972 232.492 216.5 233.5C206.554 235.475 196.221 236.142 185.5 235.5C185.649 234.448 185.483 233.448 185 232.5C183.603 234.07 182.103 235.404 180.5 236.5C175.552 237.559 170.552 237.726 165.5 237C163.677 235.342 162.01 233.509 160.5 231.5C158.358 234.073 155.692 235.906 152.5 237C146.574 238.11 140.908 237.444 135.5 235C133.217 231.823 132.383 228.323 133 224.5C135.406 220.592 138.572 217.592 142.5 215.5C148.196 213.663 153.862 211.996 159.5 210.5C160.8 208.777 161.467 206.61 161.5 204C162.747 197.246 160.08 194.58 153.5 196C152.177 196.816 151.511 197.983 151.5 199.5C150.739 209.462 145.906 212.462 137 208.5C135.281 205.546 135.115 202.546 136.5 199.5C147.04 190.149 159.04 187.982 172.5 193C173.787 194.41 174.954 195.91 176 197.5C176.333 207.833 176.667 218.167 177 228.5C178.669 230.721 180.669 231.055 183 229.5C185.225 231.278 187.725 231.778 190.5 231C191.126 230.25 191.626 229.416 192 228.5C192.667 220.5 192.667 212.5 192 204.5C190.103 202.984 187.936 202.317 185.5 202.5C185.5 200.833 185.5 199.167 185.5 197.5C193.784 194.961 202.117 192.627 210.5 190.5C210.5 193.5 210.5 196.5 210.5 199.5Z" fill="#FCF9F8"/>
<path fill-rule="evenodd" clip-rule="evenodd" d="M470.5 186.5C472.167 186.5 473.833 186.5 475.5 186.5C475.19 190.678 475.19 194.845 475.5 199C473.167 199.667 470.833 199.667 468.5 199C468.833 198.667 469.167 198.333 469.5 198C467.423 197.808 465.423 197.308 463.5 196.5C465.086 194.827 465.753 192.827 465.5 190.5C466.539 188.469 468.205 187.136 470.5 186.5Z" fill="#F0E1E2"/>
<path fill-rule="evenodd" clip-rule="evenodd" d="M601.5 177.5C607.842 177.334 614.175 177.5 620.5 178C624.822 182.861 625.655 188.361 623 194.5C616.192 199.035 608.692 200.535 600.5 199C596.99 196.45 592.99 195.116 588.5 195C587.165 190.173 586.831 185.34 587.5 180.5C592.375 179.915 597.042 178.915 601.5 177.5Z" fill="#EFDCDC"/>
<path fill-rule="evenodd" clip-rule="evenodd" d="M575.5 185.5C577.167 185.5 578.833 185.5 580.5 185.5C580.559 188.69 580.893 191.857 581.5 195C581.167 196.167 580.833 197.333 580.5 198.5C579.078 197.223 578.078 197.557 577.5 199.5C572.589 201.607 568.923 200.274 566.5 195.5C566.776 193.67 567.443 192.003 568.5 190.5C570.326 188.09 572.66 186.423 575.5 185.5Z" fill="#F3E2E1"/>
<path fill-rule="evenodd" clip-rule="evenodd" d="M577.5 199.5C578.078 197.557 579.078 197.223 580.5 198.5C580.833 197.333 581.167 196.167 581.5 195C580.893 191.857 580.559 188.69 580.5 185.5C578.833 185.5 577.167 185.5 575.5 185.5C576.997 184.694 578.664 184.028 580.5 183.5C582.056 188.725 583.056 194.058 583.5 199.5C581.5 199.5 579.5 199.5 577.5 199.5Z" fill="#DDB1B1"/>
<path fill-rule="evenodd" clip-rule="evenodd" d="M159.5 210.5C159.766 206.429 159.433 202.429 158.5 198.5C158 198.167 157.5 197.833 157 197.5C155.433 198.856 153.6 199.523 151.5 199.5C151.511 197.983 152.177 196.816 153.5 196C160.08 194.58 162.747 197.246 161.5 204C161.467 206.61 160.8 208.777 159.5 210.5Z" fill="#A7292C"/>
<path fill-rule="evenodd" clip-rule="evenodd" d="M106.5 190.5C107.167 193.167 107.833 195.833 108.5 198.5C108.44 199.043 108.107 199.376 107.5 199.5C106.516 196.572 106.183 193.572 106.5 190.5Z" fill="#D59CA3"/>
<path fill-rule="evenodd" clip-rule="evenodd" d="M470.5 186.5C472.265 185.539 474.265 185.205 476.5 185.5C477.514 190.395 477.514 195.229 476.5 200C471.902 201.024 467.568 200.524 463.5 198.5C462.353 196.235 462.186 193.902 463 191.5C463.671 190.748 464.504 190.414 465.5 190.5C465.753 192.827 465.086 194.827 463.5 196.5C465.423 197.308 467.423 197.808 469.5 198C469.167 198.333 468.833 198.667 468.5 199C470.833 199.667 473.167 199.667 475.5 199C475.19 194.845 475.19 190.678 475.5 186.5C473.833 186.5 472.167 186.5 470.5 186.5Z" fill="#E6BEBC"/>
<path fill-rule="evenodd" clip-rule="evenodd" d="M676.5 215.5C677.793 213.704 679.293 212.037 681 210.5C682.338 205.95 681.171 202.283 677.5 199.5C671.528 198.336 665.528 198.17 659.5 199C656.854 199.804 654.854 201.304 653.5 203.5C653.5 202.167 653.5 200.833 653.5 199.5C661.648 197.838 669.982 196.838 678.5 196.5C678.117 199.462 679.117 200.462 681.5 199.5C684.748 203.126 685.081 207.126 682.5 211.5C680.786 213.35 678.786 214.684 676.5 215.5Z" fill="#A7292C"/>
<path fill-rule="evenodd" clip-rule="evenodd" d="M676.5 215.5C668.959 219.796 660.959 223.129 652.5 225.5C651.274 225.48 650.274 225.147 649.5 224.5C648.286 219.737 646.952 215.071 645.5 210.5C648.752 208.92 651.418 206.587 653.5 203.5C654.854 201.304 656.854 199.804 659.5 199C665.528 198.17 671.528 198.336 677.5 199.5C681.171 202.283 682.338 205.95 681 210.5C679.293 212.037 677.793 213.704 676.5 215.5Z" fill="#F4E9E8"/>
<path fill-rule="evenodd" clip-rule="evenodd" d="M128.5 192.5C129.75 192.577 130.583 193.244 131 194.5C131.26 198.25 131.927 201.916 133 205.5C133.739 203.111 134.905 201.111 136.5 199.5C135.115 202.546 135.281 205.546 137 208.5C145.906 212.462 150.739 209.462 151.5 199.5C153.6 199.523 155.433 198.856 157 197.5C157.5 197.833 158 198.167 158.5 198.5C159.433 202.429 159.766 206.429 159.5 210.5C153.862 211.996 148.196 213.663 142.5 215.5C142.5 214.5 142.5 213.5 142.5 212.5C139.269 212.038 135.936 212.038 132.5 212.5C132.5 213.5 132.5 214.5 132.5 215.5C131.127 215.657 129.793 215.49 128.5 215C129.337 213.989 129.67 212.822 129.5 211.5C127.345 211.628 125.345 211.128 123.5 210C123.833 209.667 124.167 209.333 124.5 209C123.429 208.148 122.429 207.315 121.5 206.5C130.588 205.415 132.922 200.748 128.5 192.5Z" fill="#A7292C"/>
<path fill-rule="evenodd" clip-rule="evenodd" d="M210.5 199.5C210.419 208.199 210.919 216.865 212 225.5C212.837 227.351 213.671 229.184 214.5 231C216.81 231.497 219.143 231.663 221.5 231.5C220.5 232.167 219.5 232.833 218.5 233.5C217.833 233.5 217.167 233.5 216.5 233.5C213.972 232.492 211.805 230.826 210 228.5C209.175 218.658 209.342 208.991 210.5 199.5Z" fill="#A7292C"/>
<path fill-rule="evenodd" clip-rule="evenodd" d="M590.5 228.5C589.596 227.791 589.263 226.791 589.5 225.5C584.999 224.163 580.666 222.33 576.5 220C574.833 219.833 573.167 219.667 571.5 219.5C566.244 221.934 560.91 223.268 555.5 223.5C555.5 222.167 555.5 220.833 555.5 219.5C557.277 219.786 558.944 220.453 560.5 221.5C567.515 218.665 574.848 217.831 582.5 219C581.5 219.333 580.5 219.667 579.5 220C582.86 222.064 586.526 223.231 590.5 223.5C590.5 225.167 590.5 226.833 590.5 228.5Z" fill="#A7292C"/>
<path fill-rule="evenodd" clip-rule="evenodd" d="M533.5 221.5C538.627 221.292 543.627 221.958 548.5 223.5C551.044 235.779 546.377 239.613 534.5 235C530.836 230.83 530.503 226.33 533.5 221.5Z" fill="#F6EAE9"/>
<path fill-rule="evenodd" clip-rule="evenodd" d="M645.5 210.5C646.952 215.071 648.286 219.737 649.5 224.5C648.034 223.653 647.2 222.32 647 220.5C645.31 223.154 645.144 225.987 646.5 229C645.566 232.154 644.899 231.988 644.5 228.5C640.489 229.035 636.489 229.702 632.5 230.5C629.37 230.352 626.87 229.018 625 226.5C624.501 222.848 624.335 219.182 624.5 215.5C625.5 215.5 626.5 215.5 627.5 215.5C628.574 213.716 630.24 212.549 632.5 212C636.897 210.745 641.23 210.245 645.5 210.5Z" fill="#A7292C"/>
<path fill-rule="evenodd" clip-rule="evenodd" d="M627.5 215.5C631.944 213.556 636.611 212.556 641.5 212.5C642.046 216.883 642.546 221.217 643 225.5C638.483 228.391 633.649 229.058 628.5 227.5C625.075 223.656 624.741 219.656 627.5 215.5Z" fill="#F3E3E4"/>
<path fill-rule="evenodd" clip-rule="evenodd" d="M158.5 214.5C159.794 216.048 160.461 218.048 160.5 220.5C161.602 227.879 158.602 231.046 151.5 230C147.966 222.232 150.299 217.065 158.5 214.5Z" fill="#A7292C"/>
<path fill-rule="evenodd" clip-rule="evenodd" d="M590.5 228.5C591.231 232.603 590.231 236.103 587.5 239C580.003 241.361 572.336 242.861 564.5 243.5C560.698 242.772 557.031 241.606 553.5 240C552.189 237.726 552.189 235.56 553.5 233.5C553.01 238.507 553.843 239.174 556 235.5C556.956 236.579 557.789 237.745 558.5 239C567.08 240.698 575.414 240.531 583.5 238.5C585.917 236.506 585.917 234.673 583.5 233C584.517 231.951 584.684 230.784 584 229.5C581.747 229.631 579.581 229.965 577.5 230.5C576.932 228.565 575.765 227.232 574 226.5C571.258 227.845 568.591 228.845 566 229.5C563.989 228.283 561.989 228.616 560 230.5C558.228 229.01 558.061 227.343 559.5 225.5C558.311 224.571 556.978 224.238 555.5 224.5C555.5 224.167 555.5 223.833 555.5 223.5C560.91 223.268 566.244 221.934 571.5 219.5C573.167 219.667 574.833 219.833 576.5 220C580.666 222.33 584.999 224.163 589.5 225.5C589.263 226.791 589.596 227.791 590.5 228.5Z" fill="#F4E7E7"/>
<path fill-rule="evenodd" clip-rule="evenodd" d="M279.5 216.5C280.167 221.681 280.833 227.015 281.5 232.5C283.336 233.028 285.003 233.694 286.5 234.5C284.409 234.682 282.409 234.348 280.5 233.5C279.505 227.872 279.171 222.206 279.5 216.5Z" fill="#ECBFBE"/>
<path fill-rule="evenodd" clip-rule="evenodd" d="M555.5 224.5C556.978 224.238 558.311 224.571 559.5 225.5C558.061 227.343 558.228 229.01 560 230.5C561.989 228.616 563.989 228.283 566 229.5C568.591 228.845 571.258 227.845 574 226.5C575.765 227.232 576.932 228.565 577.5 230.5C579.581 229.965 581.747 229.631 584 229.5C584.684 230.784 584.517 231.951 583.5 233C585.917 234.673 585.917 236.506 583.5 238.5C575.414 240.531 567.08 240.698 558.5 239C557.789 237.745 556.956 236.579 556 235.5C553.843 239.174 553.01 238.507 553.5 233.5C553.42 230.219 554.087 227.219 555.5 224.5Z" fill="#FBF9FA"/>
<path fill-rule="evenodd" clip-rule="evenodd" d="M37.5 231.5C36.3398 232.265 35.3398 233.265 34.5 234.5C47.1492 235.499 59.8158 235.832 72.5 235.5C72.5 234.5 72.5 233.5 72.5 232.5C73.4345 233.568 73.7678 234.901 73.5 236.5C59.8333 236.5 46.1667 236.5 32.5 236.5C31.8333 232.5 33.5 230.833 37.5 231.5Z" fill="#F4D0D0"/>
<path fill-rule="evenodd" clip-rule="evenodd" d="M216.5 233.5C217.167 233.5 217.833 233.5 218.5 233.5C228.446 235.475 238.779 236.142 249.5 235.5C228.167 236.833 206.833 236.833 185.5 235.5C196.221 236.142 206.554 235.475 216.5 233.5Z" fill="#F5D1D4"/>
<path fill-rule="evenodd" clip-rule="evenodd" d="M75.5 176.5C72.1563 175.492 68.8229 174.492 65.5 173.5C65.4889 175.547 65.1556 177.547 64.5 179.5C64.5904 181.425 65.5904 182.592 67.5 183C66.552 183.483 65.552 183.649 64.5 183.5C64.3334 197.837 64.5001 212.171 65 226.5C66.8333 227.667 68.3333 229.167 69.5 231C72.8767 231.25 75.5433 232.75 77.5 235.5C79.773 234.721 81.6063 233.388 83 231.5C84.7659 230.767 86.5992 230.433 88.5 230.5C87.2196 231.931 85.5529 232.598 83.5 232.5C82.5655 233.568 82.2322 234.901 82.5 236.5C93.6794 236.828 104.679 236.495 115.5 235.5C115.5 234.5 115.5 233.5 115.5 232.5C113.901 232.768 112.568 232.434 111.5 231.5C115.33 231.813 118.663 233.313 121.5 236C120.5 236.333 119.5 236.667 118.5 237C105.311 237.788 92.1444 237.621 79 236.5C77.6739 236.755 76.6739 237.422 76 238.5C75.586 238.043 75.086 237.709 74.5 237.5C65.3771 240.155 56.0437 240.988 46.5 240C48.8333 239.667 51.1667 239.333 53.5 239C46.0952 239.135 39.0952 238.302 32.5 236.5C46.1667 236.5 59.8333 236.5 73.5 236.5C73.7678 234.901 73.4345 233.568 72.5 232.5C67.6793 232.965 64.5126 230.965 63 226.5C62.3333 209.167 62.3333 191.833 63 174.5C67.7652 171.49 71.9318 172.157 75.5 176.5Z" fill="#A7292C"/>
<path fill-rule="evenodd" clip-rule="evenodd" d="M83.5001 232.5C83.5001 233.5 83.5001 234.5 83.5001 235.5C94.1668 235.5 104.833 235.5 115.5 235.5C104.679 236.495 93.6795 236.828 82.5001 236.5C82.2323 234.901 82.5656 233.568 83.5001 232.5Z" fill="#F5CECF"/>
<path fill-rule="evenodd" clip-rule="evenodd" d="M395.5 236.5C390.745 237.942 385.745 238.608 380.5 238.5C377.314 238.498 374.314 238.165 371.5 237.5C379.517 237.499 387.517 237.166 395.5 236.5Z" fill="#E5B8B8"/>
</svg>
