<svg width="682" height="455" viewBox="0 0 682 455" fill="none" xmlns="http://www.w3.org/2000/svg">
<path fill-rule="evenodd" clip-rule="evenodd" d="M132.899 5.85377C131.936 19.05 131.936 32.3639 132.899 45.7962C133.479 45.4643 133.721 44.9799 133.626 44.3438C142.114 34.4787 152.281 32.4213 164.127 38.1708C167.81 40.993 170.472 44.5035 172.116 48.7011C172.555 60.1864 173.039 71.5634 173.568 82.8337C173.217 85.2216 173.943 87.1584 175.747 88.6436C174.891 90.1011 175.254 90.3429 176.836 89.3698C177.06 89.9566 177.423 90.441 177.925 90.8222C180.819 89.9856 182.03 91.1962 181.557 94.4534C170.177 94.5746 158.799 94.4534 147.424 94.0902C146.129 93.3154 145.766 92.226 146.335 90.8222C149.897 89.836 151.47 87.6573 151.055 84.2862C151.294 73.5068 151.052 62.8553 150.329 52.3322C149.199 46.797 145.81 44.7388 140.162 46.1593C136.571 48.2988 134.029 51.3242 132.536 55.2372C131.859 65.9287 132.101 76.5795 133.263 87.1911C134.375 88.6886 135.828 89.6574 137.62 90.096C137.981 91.7736 138.101 93.4679 137.983 95.1796C125.395 95.1796 112.807 95.1796 100.219 95.1796C100.101 93.4679 100.221 91.7736 100.582 90.096C103.193 89.523 105.735 88.6755 108.208 87.5542C108.71 86.7793 109.073 85.9318 109.297 85.0124C109.781 63.2256 109.781 41.4389 109.297 19.6521C109.025 18.9868 108.662 18.3812 108.208 17.8365C105.813 16.5692 103.272 15.7217 100.582 15.2947C100.004 13.4508 100.126 11.7565 100.945 10.2111C103.835 10.0354 106.498 9.30916 108.934 8.03245C111.143 7.86324 113.079 7.13701 114.744 5.85377C119.35 4.64025 123.707 2.82468 127.816 0.407077C129.493 0.0461424 131.188 -0.0744111 132.899 0.0439637C132.899 1.98081 132.899 3.91693 132.899 5.85377Z" fill="#99252A"/>
<path fill-rule="evenodd" clip-rule="evenodd" d="M4.35742 3.67505C32.5423 4.59082 60.8651 4.59082 89.3259 3.67505C86.5575 4.27346 83.6526 4.63657 80.6112 4.76439C55.1671 5.49715 29.7492 5.13404 4.35742 3.67505Z" fill="#D89EA1"/>
<path fill-rule="evenodd" clip-rule="evenodd" d="M92.2305 3.67535C93.261 2.98471 94.4709 2.74287 95.8616 2.94912C95.8616 5.85403 95.8616 8.75893 95.8616 11.6638C95.1484 9.14964 94.9066 6.48657 95.1354 3.67535C94.1673 3.67535 93.1985 3.67535 92.2305 3.67535Z" fill="#E9C2C2"/>
<path fill-rule="evenodd" clip-rule="evenodd" d="M114.744 5.85376C113.079 7.137 111.143 7.86323 108.934 8.03244C110.599 6.7492 112.535 6.02297 114.744 5.85376Z" fill="#CB9293"/>
<path fill-rule="evenodd" clip-rule="evenodd" d="M108.934 8.03247C106.498 9.30918 103.835 10.0354 100.945 10.2111C103.381 8.93444 106.044 8.20822 108.934 8.03247Z" fill="#B97377"/>
<path fill-rule="evenodd" clip-rule="evenodd" d="M4.35736 3.67505C29.7491 5.13404 55.167 5.49715 80.6111 4.76439C83.6525 4.63657 86.5574 4.27346 89.3258 3.67505C90.2939 3.67505 91.2627 3.67505 92.2307 3.67505C93.1988 3.67505 94.1676 3.67505 95.1356 3.67505C94.9069 6.48627 95.1487 9.14934 95.8619 11.6635C95.8481 18.8372 96.3317 25.9789 97.3143 33.0872C97.2381 34.2434 96.9955 35.3327 96.5881 36.3552C94.8938 36.3552 93.1988 36.3552 91.5045 36.3552C88.7267 27.0515 83.6431 19.3056 76.2537 13.116C74.3213 10.8139 71.7795 9.84507 68.6284 10.2111C65.9864 9.92931 63.6864 10.6555 61.7292 12.3898C61.4874 23.8881 61.2448 35.3872 61.003 46.8855C61.0037 58.6366 61.4874 70.1349 62.4554 81.3812C63.019 84.9434 64.9558 87.3639 68.2653 88.6435C69.7003 89.7408 71.3946 90.3458 73.3488 90.4591C74.0068 91.6929 74.2486 93.0248 74.0751 94.4533C57.1177 94.6414 40.1719 94.3996 23.2392 93.7271C23.2392 92.759 23.2392 91.7902 23.2392 90.8222C23.3198 90.3741 23.5617 90.011 23.9655 89.7328C26.9285 89.2339 29.8334 88.5077 32.6802 87.5542C34.044 86.4336 35.1334 85.1024 35.9482 83.5599C36.4326 60.0789 36.4326 36.5971 35.9482 13.116C31.678 11.1261 27.4412 11.2474 23.2392 13.4791C15.1048 19.3586 9.05313 26.8627 5.08358 35.9921C3.23969 36.5702 1.54541 36.4489 0 35.629C0.320992 32.9754 0.563551 30.3123 0.726226 27.6405C0.65433 25.6528 0.896889 23.716 1.45245 21.8307C3.17651 17.9839 3.90274 13.8691 3.63113 9.48486C3.40891 7.3897 3.65074 5.45285 4.35736 3.67505Z" fill="#99242A"/>
<path fill-rule="evenodd" clip-rule="evenodd" d="M95.8616 11.6636C96.6249 18.5693 97.3511 25.589 98.0403 32.7241C97.9996 34.2783 97.5152 35.4882 96.5878 36.3553C96.9953 35.3327 97.2378 34.2434 97.3141 33.0872C96.3315 25.9789 95.8478 18.8372 95.8616 11.6636Z" fill="#F5CBCB"/>
<path fill-rule="evenodd" clip-rule="evenodd" d="M76.2537 13.1162C72.5122 11.7146 68.6385 11.3514 64.6341 12.0268C64.0291 12.6318 63.4234 13.2374 62.8185 13.8424C62.4554 36.354 62.3341 58.867 62.4554 81.3814C61.4873 70.1351 61.0037 58.6367 61.0029 46.8857C61.2448 35.3873 61.4873 23.8883 61.7292 12.3899C63.6863 10.6557 65.9863 9.92949 68.6283 10.2113C71.7794 9.84525 74.3212 10.814 76.2537 13.1162Z" fill="#97363A"/>
<path fill-rule="evenodd" clip-rule="evenodd" d="M132.9 5.85376C132.66 18.8104 132.902 31.6406 133.626 44.3438C133.721 44.9799 133.479 45.4643 132.9 45.7962C131.936 32.3639 131.936 19.05 132.9 5.85376Z" fill="#E2A9AC"/>
<path fill-rule="evenodd" clip-rule="evenodd" d="M246.917 52.3324C247.425 55.4537 247.667 58.6005 247.643 61.7734C247.395 62.3819 246.911 62.6245 246.191 62.4996C233.845 62.4996 221.499 62.4996 209.153 62.4996C208.92 66.5127 209.162 70.3864 209.879 74.1192C209.972 80.0002 212.635 84.1157 217.868 86.4651C220.442 87.9676 223.104 88.2095 225.856 87.1913C228.174 87.2603 230.353 86.7766 232.392 85.7388C234.383 85.5885 236.077 84.8623 237.476 83.5602C239.592 82.5391 241.408 81.0866 242.923 79.2028C245.485 80.0547 246.453 81.7489 245.828 84.2864C235.047 97.1965 221.612 100.949 205.522 95.5429C186.439 85.2573 181.234 70.1279 189.908 50.1537C198.276 38.1674 209.775 33.2051 224.404 35.2661C232.515 36.476 239.172 40.2284 244.375 46.5226C245.431 48.3897 246.278 50.3266 246.917 52.3324Z" fill="#98252B"/>
<path fill-rule="evenodd" clip-rule="evenodd" d="M221.499 55.9634C217.868 55.9634 214.237 55.9634 210.606 55.9634C210.606 54.9953 210.606 54.0266 210.606 53.0585C210.584 44.4781 214.699 40.7257 222.951 41.802C226.33 45.0962 227.419 49.0904 226.219 53.7847C224.96 55.2016 223.386 55.9278 221.499 55.9634Z" fill="#FCF5F5"/>
<path fill-rule="evenodd" clip-rule="evenodd" d="M210.606 53.0586C210.606 54.0267 210.606 54.9954 210.606 55.9635C214.237 55.9635 217.868 55.9635 221.499 55.9635C217.766 56.681 213.892 56.9228 209.879 56.6897C209.673 55.299 209.915 54.0891 210.606 53.0586Z" fill="#C57678"/>
<path fill-rule="evenodd" clip-rule="evenodd" d="M246.917 52.332C247.971 54.0372 248.455 55.9733 248.369 58.1418C248.364 59.4992 248.123 60.7098 247.643 61.773C247.667 58.6001 247.425 55.4534 246.917 52.332Z" fill="#C2888A"/>
<path fill-rule="evenodd" clip-rule="evenodd" d="M150.329 52.332C151.052 62.855 151.294 73.5066 151.055 84.286C150.376 87.3855 148.44 89.3224 145.245 90.0958C145.478 88.9716 146.204 88.4872 147.424 88.6433C147.424 87.9171 147.424 87.1909 147.424 86.4647C148.15 86.4647 148.876 86.4647 149.602 86.4647C150.283 75.1079 150.526 63.7302 150.329 52.332Z" fill="#F4CACA"/>
<path fill-rule="evenodd" clip-rule="evenodd" d="M172.116 48.7012C172.673 49.2553 173.037 49.9815 173.205 50.8799C173.568 61.5285 173.689 72.1801 173.568 82.8338C173.039 71.5635 172.555 60.1864 172.116 48.7012Z" fill="#E0ADAF"/>
<path fill-rule="evenodd" clip-rule="evenodd" d="M246.191 62.4995C234.214 63.2236 222.111 63.4654 209.879 63.2257C209.879 66.8569 209.879 70.488 209.879 74.1191C209.162 70.3863 208.92 66.5126 209.153 62.4995C221.499 62.4995 233.845 62.4995 246.191 62.4995Z" fill="#F8CACC"/>
<path fill-rule="evenodd" clip-rule="evenodd" d="M237.476 83.5601C236.077 84.8622 234.383 85.5884 232.393 85.7387C233.791 84.4366 235.486 83.7104 237.476 83.5601Z" fill="#CD8F92"/>
<path fill-rule="evenodd" clip-rule="evenodd" d="M217.868 86.4648C220.508 86.9107 223.171 87.1533 225.856 87.1911C223.104 88.2092 220.441 87.9674 217.868 86.4648Z" fill="#B77776"/>
<path fill-rule="evenodd" clip-rule="evenodd" d="M151.055 84.2861C151.471 87.6573 149.897 89.836 146.335 90.8222C145.766 92.226 146.129 93.3153 147.424 94.0902C158.799 94.4533 170.177 94.5746 181.557 94.4533C182.03 91.1962 180.82 89.9856 177.926 90.8222C177.423 90.4409 177.06 89.9565 176.836 89.3697C175.254 90.3429 174.891 90.101 175.747 88.6435C178.106 88.9347 180.406 89.4191 182.646 90.0959C183.204 91.9834 183.083 93.799 182.283 95.5426C169.936 95.6392 157.59 95.3974 145.245 94.8164C144.324 93.2456 144.324 91.6719 145.245 90.0959C148.44 89.3225 150.376 87.3857 151.055 84.2861Z" fill="#994143"/>
<path fill-rule="evenodd" clip-rule="evenodd" d="M68.2653 88.6436C70.4345 89.0052 72.6132 89.3683 74.8013 89.7329C75.4803 91.462 75.7221 93.2776 75.5275 95.1796C58.0966 95.3009 40.6672 95.1796 23.2392 94.8165C22.29 93.4054 22.29 92.0735 23.2392 90.8222C23.2392 91.7903 23.2392 92.7591 23.2392 93.7271C40.1719 94.3996 57.1177 94.6415 74.0751 94.4534C74.2486 93.0249 74.0068 91.693 73.3488 90.4591C71.3946 90.3458 69.7003 89.7409 68.2653 88.6436Z" fill="#923639"/>
<path fill-rule="evenodd" clip-rule="evenodd" d="M310.098 136.575C309.499 139.586 309.136 142.734 309.009 146.016C308.406 167.925 308.527 189.712 309.372 211.376C310.021 215.649 312.563 217.828 316.998 217.912C317.537 219.322 317.416 220.653 316.634 221.906C307.935 224.161 299.341 226.703 290.853 229.532C289.811 229.489 288.843 229.247 287.949 228.806C287.821 226.11 287.458 223.447 286.859 220.817C283.606 225.346 279.248 228.009 273.787 228.806C264.703 229.039 256.836 226.134 250.185 220.091C249.895 220.256 249.774 220.499 249.822 220.817C245.189 216.28 242.405 210.712 241.47 204.114C239.619 187.597 246.034 175.615 260.715 168.166C261.902 167.807 263.112 167.686 264.346 167.803C269.435 166.868 274.518 166.868 279.597 167.803C281.514 168.491 283.451 169.217 285.407 169.981C285.45 170.376 285.692 170.617 286.133 170.707C286.979 164.428 287.1 158.134 286.496 151.826C286.017 150.501 285.169 149.533 283.954 148.921C281.698 148.058 279.399 147.332 277.055 146.742C276.505 145.094 276.626 143.52 277.418 142.021C287.713 139.438 297.639 135.928 307.194 131.491C308.117 131.542 308.964 131.784 309.735 132.217C310.095 133.65 310.216 135.103 310.098 136.575Z" fill="#99242A"/>
<path fill-rule="evenodd" clip-rule="evenodd" d="M344.957 155.456C341.573 156.358 338.187 156.358 334.79 155.456C326.389 148.63 326.148 141.489 334.064 134.033C347.652 131.326 353.098 136.773 350.404 150.373C349.141 152.73 347.325 154.424 344.957 155.456Z" fill="#97242A"/>
<path fill-rule="evenodd" clip-rule="evenodd" d="M461.88 146.015C461.93 150.394 461.691 154.751 461.153 159.087C457.747 168.791 451.451 176.053 442.271 180.874C439.926 179.876 439.076 178.181 439.73 175.791C443.491 173.548 446.636 170.643 449.171 167.076C449.526 165.889 449.65 164.679 449.534 163.445C450.238 161.667 450.485 159.73 450.26 157.635C448.321 157.635 446.389 157.635 444.45 157.635C441.364 156.847 439.301 154.91 438.277 151.825C437.682 148.301 437.805 144.912 438.64 141.658C440.499 139.764 442.431 137.948 444.45 136.211C450.761 133.627 455.721 135.2 459.338 140.932C459.824 142.877 460.674 144.571 461.88 146.015Z" fill="#98242A"/>
<path fill-rule="evenodd" clip-rule="evenodd" d="M70.4438 170.707C69.7205 180.261 69.4786 189.945 69.7176 199.756C68.2651 199.756 66.8127 199.756 65.3602 199.756C64.8126 195.549 63.1183 191.797 60.2766 188.5C59.1306 187.705 57.92 187.099 56.6455 186.684C56.3419 186.16 55.8583 185.797 55.193 185.595C51.0848 185.232 46.9693 185.111 42.8472 185.232C42.7259 194.675 42.8472 204.116 43.2103 213.554C43.5182 215.388 44.365 216.841 45.7521 217.912C46.6592 219.1 47.8698 219.947 49.3832 220.453C51.7718 221.094 54.193 221.578 56.6455 221.906C57.5751 223.454 57.5751 225.027 56.6455 226.626C38.9793 226.501 21.3073 226.743 3.63098 227.353C3.63098 225.416 3.63098 223.48 3.63098 221.543C8.22726 221.852 12.1002 220.4 15.2506 217.185C15.7749 216.882 16.138 216.398 16.3399 215.733C16.8243 193.22 16.8243 170.707 16.3399 148.194C15.9289 146.212 14.8396 144.76 13.0719 143.837C9.72837 142.729 6.58091 141.519 3.63098 140.206C3.47557 139.012 3.71812 137.922 4.3572 136.937C9.19242 136.574 14.0342 136.454 18.8817 136.574C42.129 136.754 65.3682 136.512 88.5994 135.848C88.5682 143.844 88.8101 151.832 89.3257 159.814C89.2915 162.549 88.8071 165.091 87.8732 167.439C86.3634 168.026 84.9109 167.904 83.5159 167.076C78.8607 146.13 66.0305 138.505 45.0259 144.2C44.1537 144.856 43.548 145.702 43.2103 146.742C42.8472 157.39 42.7259 168.042 42.8472 178.695C54.7871 180.599 62.2912 175.758 65.3602 164.171C66.992 163.536 68.6863 163.294 70.4438 163.445C70.4438 165.865 70.4438 168.286 70.4438 170.707Z" fill="#99262B"/>
<path fill-rule="evenodd" clip-rule="evenodd" d="M461.88 145.289C461.88 145.531 461.88 145.774 461.88 146.016C460.674 144.571 459.825 142.877 459.338 140.932C455.721 135.201 450.761 133.627 444.45 136.211C442.432 137.949 440.5 139.764 438.641 141.658C441.226 135.575 445.83 133.033 452.439 134.033C457.726 136.012 460.87 139.764 461.88 145.289Z" fill="#94393D"/>
<path fill-rule="evenodd" clip-rule="evenodd" d="M461.88 145.289C462.359 146.967 462.606 148.782 462.606 150.736C462.715 153.722 462.228 156.506 461.153 159.087C461.691 154.751 461.93 150.394 461.88 146.015C461.88 145.773 461.88 145.531 461.88 145.289Z" fill="#BB7E82"/>
<path fill-rule="evenodd" clip-rule="evenodd" d="M334.79 155.456C338.187 156.358 341.573 156.358 344.957 155.456C343.657 156.543 342.081 157.028 340.237 156.909C338.188 156.976 336.372 156.492 334.79 155.456Z" fill="#C28283"/>
<path fill-rule="evenodd" clip-rule="evenodd" d="M310.099 136.574C309.462 161.502 309.219 186.436 309.372 211.376C308.527 189.712 308.406 167.925 309.009 146.015C309.136 142.734 309.499 139.586 310.099 136.574Z" fill="#BA7E7E"/>
<path fill-rule="evenodd" clip-rule="evenodd" d="M444.45 157.635C446.389 157.635 448.321 157.635 450.26 157.635C450.485 159.73 450.238 161.667 449.534 163.445C449.534 161.751 449.534 160.056 449.534 158.361C447.675 158.581 445.983 158.338 444.45 157.635Z" fill="#DFA3A7"/>
<path fill-rule="evenodd" clip-rule="evenodd" d="M283.954 148.92C285.169 149.532 286.017 150.5 286.496 151.825C287.1 158.133 286.979 164.427 286.133 170.707C285.692 170.617 285.45 170.375 285.407 169.981C286.321 163.79 286.321 157.495 285.407 151.099C284.643 151.207 283.916 151.086 283.228 150.736C283.774 150.248 284.017 149.643 283.954 148.92Z" fill="#FDDADC"/>
<path fill-rule="evenodd" clip-rule="evenodd" d="M279.597 167.802C274.518 166.868 269.435 166.868 264.346 167.802C266.79 166.685 269.452 166.2 272.335 166.35C274.272 166.471 276.208 166.592 278.144 166.713C278.81 166.915 279.293 167.278 279.597 167.802Z" fill="#C07B7E"/>
<path fill-rule="evenodd" clip-rule="evenodd" d="M484.393 167.077C486.433 166.594 488.612 166.352 490.929 166.351C494.051 166.189 496.956 166.674 499.643 167.803C494.589 167.192 489.505 166.95 484.393 167.077Z" fill="#B87677"/>
<path fill-rule="evenodd" clip-rule="evenodd" d="M425.569 180.875C427.297 184.8 428.023 188.915 427.747 193.22C427.5 193.829 427.014 194.072 426.295 193.947C413.949 193.947 401.603 193.947 389.257 193.947C389.134 198.311 389.257 202.668 389.62 207.019C389.795 208.727 390.397 210.179 391.436 211.376C392.344 214.46 394.276 216.638 397.246 217.912C399.076 218.982 401.131 219.466 403.419 219.365C405.706 219.466 407.762 218.982 409.592 217.912C414.813 216.94 419.294 214.52 423.027 210.65C423.862 211.553 424.835 212.279 425.932 212.829C426.418 213.797 426.418 214.765 425.932 215.733C411.364 231.737 395.024 233.794 376.911 221.906C365.633 211.424 362.852 198.957 368.56 184.506C373.375 175.102 381 169.171 391.436 166.713C403.6 164.879 414.131 168.147 423.027 176.517C424.058 177.901 424.908 179.353 425.569 180.875Z" fill="#99262C"/>
<path fill-rule="evenodd" clip-rule="evenodd" d="M484.393 167.076C489.505 166.95 494.589 167.192 499.643 167.802C503.195 168.821 506.826 169.305 510.537 169.255C510.733 175.015 510.733 180.703 510.537 186.321C509.084 186.806 507.632 186.806 506.179 186.321C503.325 176.182 496.789 172.068 486.571 173.975C483.768 177.534 483.768 181.165 486.571 184.869C492.657 187.628 498.714 190.533 504.727 193.583C516.18 200.6 517.995 209.677 510.174 220.817C501.009 228.498 490.478 231.039 478.583 228.442C474.509 226.214 470.151 225.124 465.511 225.174C465.14 218.834 464.414 212.54 463.332 206.292C465.046 206.174 466.738 206.295 468.416 206.656C470.718 211.621 473.862 215.979 477.857 219.728C479.004 220.522 480.21 221.128 481.488 221.543C482.911 222.645 484.61 223.129 486.571 222.996C487.929 222.991 489.142 222.749 490.202 222.269C494.255 219.783 495.591 216.152 494.197 211.376C486.39 206.806 478.517 202.327 470.594 197.941C464.552 192.259 463.223 185.602 466.6 177.97C471.27 172.189 477.203 168.558 484.393 167.076Z" fill="#98262B"/>
<path fill-rule="evenodd" clip-rule="evenodd" d="M352.219 167.076C351.464 182.931 351.464 198.666 352.219 214.281C353.018 219.357 356.039 222.02 361.297 222.269C361.849 223.917 361.726 225.491 360.934 226.99C348.225 226.466 335.516 226.587 322.807 227.353C320.446 227.774 319.356 226.806 319.539 224.448C319.59 223.524 319.832 222.678 320.265 221.906C324.647 221.77 327.673 219.712 329.343 215.733C329.828 206.051 329.828 196.367 329.343 186.684C327.344 183.318 324.318 181.503 320.265 181.238C319.484 179.984 319.363 178.653 319.902 177.243C329.18 174.311 338.258 170.801 347.136 166.713C348.98 166.135 350.673 166.256 352.219 167.076Z" fill="#98242A"/>
<path fill-rule="evenodd" clip-rule="evenodd" d="M153.96 202.661C152.817 205.135 152.09 207.798 151.781 210.65C149.418 215.571 146.029 219.807 141.614 223.359C139.45 225.046 137.029 226.136 134.352 226.627C126.894 227.892 119.39 228.255 111.839 227.716C111.112 227.474 110.386 227.232 109.66 226.99C110.539 226.341 110.539 225.736 109.66 225.174C109.059 225.839 108.332 226.322 107.481 226.627C106.135 225.896 104.924 225.896 103.85 226.627C88.9566 219.847 82.5419 208.228 84.6051 191.768C90.9879 172.817 104.181 164.465 124.184 166.713C140.408 168.464 150.212 177.3 153.597 193.22C153.959 196.358 154.08 199.505 153.96 202.661Z" fill="#99252B"/>
<path fill-rule="evenodd" clip-rule="evenodd" d="M402.329 187.411C398.458 187.411 394.58 187.411 390.709 187.411C391.196 184.506 391.675 181.601 392.162 178.696C393.869 172.921 397.5 171.347 403.055 173.976C406.701 177.376 407.551 181.37 405.597 185.958C404.631 186.744 403.542 187.229 402.329 187.411Z" fill="#FDF7F7"/>
<path fill-rule="evenodd" clip-rule="evenodd" d="M109.66 214.281C108.512 202.621 108.754 191.002 110.386 179.422C112.47 173.539 116.585 171.481 122.732 173.249C126.772 175.874 129.072 179.626 129.631 184.506C130.116 192.979 130.116 201.451 129.631 209.924C129.243 214.025 127.911 217.777 125.637 221.18C117.233 225.518 111.908 223.218 109.66 214.281Z" fill="#FEFBFB"/>
<path fill-rule="evenodd" clip-rule="evenodd" d="M232.392 193.22C232.26 199.118 231.534 204.928 230.214 210.65C225.009 221.617 216.295 227.79 204.069 229.168C190.588 231.279 179.089 227.527 169.574 217.912C158.612 201.033 160.67 185.903 175.747 172.523C189.828 164.599 204.11 164.357 218.594 171.796C222.68 175.003 226.19 178.756 229.124 183.053C230.018 186.58 231.107 189.97 232.392 193.22Z" fill="#99262B"/>
<path fill-rule="evenodd" clip-rule="evenodd" d="M206.248 179.422C207.585 189.523 208.07 199.69 207.701 209.924C207.871 215.145 205.935 219.261 201.891 222.269C199.016 223.112 196.111 223.233 193.176 222.633C190.619 220.29 188.925 217.507 188.093 214.281C186.944 202.621 187.186 191.002 188.819 179.422C190.902 173.539 195.017 171.481 201.165 173.249C203.81 174.56 205.505 176.617 206.248 179.422Z" fill="#FEFCFB"/>
<path fill-rule="evenodd" clip-rule="evenodd" d="M265.072 204.114C265.034 197.565 265.277 191.029 265.798 184.506C267.061 176.591 271.66 173.323 279.597 174.702C281.984 175.149 284.042 176.238 285.77 177.97C286.958 189.523 287.2 201.142 286.496 212.829C284.68 215.612 282.38 217.912 279.597 219.728C274.263 221.352 270.268 219.779 267.614 215.007C266.644 211.372 265.797 207.741 265.072 204.114Z" fill="#FEFAFA"/>
<path fill-rule="evenodd" clip-rule="evenodd" d="M392.162 178.696C391.676 181.6 391.196 184.505 390.71 187.41C394.581 187.41 398.459 187.41 402.33 187.41C398.35 188.129 394.239 188.37 389.984 188.136C389.926 184.729 390.652 181.582 392.162 178.696Z" fill="#DE9C9D"/>
<path fill-rule="evenodd" clip-rule="evenodd" d="M56.6455 186.685C52.3143 186.098 47.957 185.857 43.5735 185.958C43.4522 194.918 43.5735 203.875 43.9366 212.829C44.5517 214.538 45.1566 216.233 45.7522 217.912C44.3651 216.841 43.5183 215.389 43.2104 213.555C42.8472 204.117 42.726 194.676 42.8472 185.232C46.9693 185.112 51.0848 185.233 55.1931 185.595C55.8583 185.797 56.342 186.16 56.6455 186.685Z" fill="#FDE4E5"/>
<path fill-rule="evenodd" clip-rule="evenodd" d="M425.568 180.874C426.883 182.243 427.733 183.938 428.11 185.958C428.698 188.519 428.575 190.94 427.747 193.22C428.023 188.915 427.297 184.8 425.568 180.874Z" fill="#D29C9E"/>
<path fill-rule="evenodd" clip-rule="evenodd" d="M206.248 179.422C207.175 180.919 207.78 182.614 208.064 184.505C208.663 193.105 208.542 201.577 207.7 209.923C208.069 199.69 207.585 189.523 206.248 179.422Z" fill="#FAD7D8"/>
<path fill-rule="evenodd" clip-rule="evenodd" d="M352.22 167.076C352.459 182.684 352.459 198.419 352.22 214.281C351.465 198.665 351.465 182.93 352.22 167.076Z" fill="#E4A9AB"/>
<path fill-rule="evenodd" clip-rule="evenodd" d="M426.295 193.946C414.319 194.67 402.213 194.912 389.984 194.673C389.766 200.315 390.245 205.882 391.436 211.376C390.398 210.179 389.795 208.726 389.62 207.018C389.257 202.668 389.134 198.31 389.257 193.946C401.603 193.946 413.949 193.946 426.295 193.946Z" fill="#F1B8BA"/>
<path fill-rule="evenodd" clip-rule="evenodd" d="M265.799 184.505C265.277 191.028 265.035 197.564 265.072 204.113C264.589 201.827 264.348 199.406 264.346 196.851C264.275 192.566 264.759 188.451 265.799 184.505Z" fill="#9D5858"/>
<path fill-rule="evenodd" clip-rule="evenodd" d="M70.4439 170.707C70.4439 180.632 70.4439 190.557 70.4439 200.482C68.5855 200.702 66.8905 200.459 65.3604 199.756C66.8128 199.756 68.2653 199.756 69.7177 199.756C69.4788 189.945 69.7206 180.261 70.4439 170.707Z" fill="#B9787C"/>
<path fill-rule="evenodd" clip-rule="evenodd" d="M110.386 179.422C108.754 191.002 108.512 202.621 109.66 214.281C109.086 213.475 108.723 212.507 108.571 211.376C108.086 202.903 108.086 194.431 108.571 185.958C108.719 183.564 109.324 181.385 110.386 179.422Z" fill="#DEA3A6"/>
<path fill-rule="evenodd" clip-rule="evenodd" d="M188.819 179.422C187.186 191.002 186.944 202.621 188.092 214.281C187.519 213.475 187.155 212.507 187.003 211.376C186.519 202.903 186.519 194.431 187.003 185.958C187.151 183.564 187.756 181.385 188.819 179.422Z" fill="#DDA1A4"/>
<path fill-rule="evenodd" clip-rule="evenodd" d="M153.96 202.661C153.948 205.591 153.221 208.254 151.781 210.65C152.091 207.798 152.817 205.135 153.96 202.661Z" fill="#DAA5A5"/>
<path fill-rule="evenodd" clip-rule="evenodd" d="M232.393 193.22C233.438 199.219 232.712 205.029 230.214 210.65C231.534 204.928 232.26 199.118 232.393 193.22Z" fill="#D9A2A4"/>
<path fill-rule="evenodd" clip-rule="evenodd" d="M397.246 217.912C401.356 218.821 405.474 218.821 409.591 217.912C407.761 218.982 405.706 219.466 403.419 219.364C401.131 219.466 399.076 218.982 397.246 217.912Z" fill="#D59598"/>
<path fill-rule="evenodd" clip-rule="evenodd" d="M273.787 228.806C264.356 230.665 256.367 228.002 249.822 220.817C249.775 220.499 249.895 220.256 250.185 220.091C256.836 226.134 264.703 229.039 273.787 228.806Z" fill="#9C4348"/>
<path fill-rule="evenodd" clip-rule="evenodd" d="M481.488 221.543C484.371 222.024 487.276 222.266 490.203 222.269C489.142 222.749 487.929 222.99 486.571 222.995C484.611 223.129 482.911 222.645 481.488 221.543Z" fill="#D19596"/>
<path fill-rule="evenodd" clip-rule="evenodd" d="M134.352 226.627C126.92 229.353 119.174 230.2 111.112 229.168C108.533 228.531 106.112 227.684 103.85 226.627C104.924 225.896 106.135 225.896 107.481 226.627C108.332 226.322 109.059 225.839 109.66 225.174C110.539 225.736 110.539 226.341 109.66 226.99C110.386 227.231 111.112 227.474 111.839 227.716C119.39 228.255 126.894 227.892 134.352 226.627Z" fill="#993C3F"/>
<path fill-rule="evenodd" clip-rule="evenodd" d="M293.396 262.938C294.868 262.82 296.32 262.942 297.753 263.301C298.186 264.072 298.428 264.919 298.479 265.843C297.996 269.46 297.633 273.091 297.39 276.736C296.905 299.734 296.905 322.73 297.39 345.728C298.335 351.033 301.482 353.696 306.831 353.716C307.315 355.169 307.315 356.621 306.831 358.074C293.183 358.167 279.506 358.167 265.799 358.074C265.058 356.671 264.937 355.218 265.436 353.716C270.071 353.631 273.217 351.453 274.877 347.18C275.361 325.878 275.361 304.575 274.877 283.272C272.785 280.024 269.76 278.329 265.799 278.189C265.058 276.786 264.937 275.333 265.436 273.831C275.168 271.115 284.488 267.483 293.396 262.938Z" fill="#98242A"/>
<path fill-rule="evenodd" clip-rule="evenodd" d="M237.476 264.39C250.29 263.523 255.494 269.332 253.09 281.82C249.378 287.819 244.174 289.634 237.476 287.267C230.581 282.314 229.25 276.141 233.482 268.748C234.963 267.39 236.294 265.937 237.476 264.39Z" fill="#98252B"/>
<path fill-rule="evenodd" clip-rule="evenodd" d="M388.531 265.843C383.68 265.924 378.836 266.167 374.006 266.569C378.807 265.138 383.651 264.896 388.531 265.843Z" fill="#B36D6F"/>
<path fill-rule="evenodd" clip-rule="evenodd" d="M487.298 265.843C481.96 265.878 476.637 266.12 471.321 266.569C476.608 265.103 481.931 264.861 487.298 265.843Z" fill="#BA787A"/>
<path fill-rule="evenodd" clip-rule="evenodd" d="M493.107 265.843C495.032 265.778 496.731 266.261 498.191 267.295C496.267 267.361 494.567 266.877 493.107 265.843Z" fill="#D69A9C"/>
<path fill-rule="evenodd" clip-rule="evenodd" d="M95.1356 266.569C95.5249 277.485 96.2511 288.378 97.3143 299.249C95.4494 299.939 93.6338 299.939 91.8676 299.249C88.6562 290.708 83.6939 283.324 76.98 277.099C73.1615 274.889 69.046 274.163 64.6341 274.92C64.0292 275.525 63.4235 276.131 62.8186 276.736C62.3342 299.733 62.3342 322.73 62.8186 345.728C63.6661 349.48 65.9653 351.779 69.7177 352.627C71.6393 352.988 73.5761 353.109 75.5275 352.99C75.5275 354.927 75.5275 356.863 75.5275 358.8C58.0959 357.94 40.6665 357.94 23.2392 358.8C23.2392 356.863 23.2392 354.927 23.2392 352.99C27.8646 353.296 31.7383 351.843 34.8589 348.632C35.3832 348.329 35.7463 347.845 35.9482 347.18C36.5517 323.575 36.4304 300.094 35.5851 276.736C32.2735 274.26 28.6424 273.896 24.6917 275.647C16.189 281.852 9.653 289.719 5.08358 299.249C3.45466 299.956 1.76037 300.199 0 299.975C1.1242 288.814 2.33482 277.679 3.63113 266.569C34.129 268.495 64.6305 268.495 95.1356 266.569Z" fill="#99262C"/>
<path fill-rule="evenodd" clip-rule="evenodd" d="M487.298 265.843C489.237 265.843 491.168 265.843 493.107 265.843C494.567 266.877 496.267 267.361 498.191 267.295C503.601 269.018 509.164 269.744 514.894 269.474C515.221 279.155 515.468 288.837 515.62 298.523C513.623 298.687 511.684 298.445 509.811 297.797C507.16 288.736 502.076 281.353 494.56 275.647C492.519 274.382 490.341 273.535 488.024 273.105C485.7 271.994 483.158 271.51 480.399 271.653C477.639 271.51 475.097 271.994 472.773 273.105C465.01 276.736 460.173 282.789 458.249 291.261C456.498 294.863 455.409 298.736 454.981 302.88C454.494 309.901 454.494 316.92 454.981 323.941C455.126 325.308 455.489 326.518 456.07 327.572C457.363 338.518 462.446 347.112 471.321 353.353C476.586 354.484 481.916 354.726 487.298 354.079C489.28 353.423 490.98 352.333 492.381 350.811C492.904 350.508 493.267 350.024 493.471 349.359C494.066 341.969 493.95 334.707 493.107 327.572C492.599 325.963 491.626 324.632 490.203 323.578C486.891 322.507 483.499 321.902 480.035 321.762C480.035 319.825 480.035 317.889 480.035 315.952C496.492 316.862 512.955 316.862 529.419 315.952C529.535 317.664 529.419 319.358 529.056 321.036C523.558 321.235 519.927 323.898 518.162 329.024C517.589 336.805 517.712 344.551 518.525 352.264C517.734 353.741 516.521 354.71 514.894 355.169C512.04 355.478 509.382 356.204 506.906 357.347C495.199 359.946 483.332 361.157 471.321 360.978C457.987 359.084 446.731 353.274 437.551 343.549C435.329 339.998 433.274 336.367 431.378 332.656C427.871 322.995 426.897 313.069 428.473 302.88C432.896 286.228 443.303 274.971 459.701 269.111C463.485 267.802 467.355 266.955 471.321 266.569C476.637 266.12 481.96 265.878 487.298 265.843Z" fill="#98252B"/>
<path fill-rule="evenodd" clip-rule="evenodd" d="M388.531 265.843C394.617 266.904 400.666 268.114 406.687 269.474C407.849 274.977 408.575 280.545 408.865 286.177C408.865 288.84 408.865 291.503 408.865 294.166C407.152 294.284 405.459 294.163 403.782 293.802C402.213 287.894 399.671 282.447 396.156 277.462C393.477 275.096 390.456 273.401 387.079 272.379C385.771 271.898 384.319 271.656 382.721 271.653C380.521 271.498 378.589 271.982 376.912 273.105C374.994 274.538 373.302 276.232 371.828 278.189C369.947 281.357 369.947 284.504 371.828 287.63C372.787 290.412 374.479 292.712 376.912 294.529C387.093 300.345 396.781 306.881 405.961 314.137C416.818 327.298 416.331 340.128 404.508 352.627C399.439 355.804 394.116 358.346 388.531 360.252C381.269 361.188 374.007 361.188 366.744 360.252C362.372 358.231 357.775 356.779 352.946 355.895C351.247 354.776 349.315 354.293 347.136 354.442C347.136 345.243 347.136 336.045 347.136 326.846C348.828 326.846 350.528 326.846 352.22 326.846C354.754 339.42 361.77 348.498 373.28 354.079C377.151 354.564 381.029 354.564 384.9 354.079C387.936 352.858 390.114 350.8 391.436 347.906C394.029 342.16 393.063 337.077 388.531 332.656C379.642 326.075 370.441 319.902 360.935 314.137C349.308 304.685 346.766 293.187 353.309 279.641C358.444 272.417 365.343 268.059 374.007 266.569C378.836 266.167 383.68 265.924 388.531 265.843Z" fill="#98252B"/>
<path fill-rule="evenodd" clip-rule="evenodd" d="M387.078 272.379C383.665 272.333 380.274 272.576 376.911 273.105C378.589 271.982 380.52 271.498 382.721 271.653C384.319 271.656 385.771 271.898 387.078 272.379Z" fill="#D7A2A4"/>
<path fill-rule="evenodd" clip-rule="evenodd" d="M488.024 273.105C482.941 272.137 477.857 272.137 472.773 273.105C475.097 271.994 477.639 271.51 480.399 271.653C483.158 271.51 485.7 271.994 488.024 273.105Z" fill="#C18485"/>
<path fill-rule="evenodd" clip-rule="evenodd" d="M95.1357 266.569C96.2091 276.131 97.1772 285.815 98.0406 295.618C98.0356 296.975 97.7937 298.186 97.3144 299.249C96.2512 288.378 95.525 277.485 95.1357 266.569Z" fill="#F1C5C4"/>
<path fill-rule="evenodd" clip-rule="evenodd" d="M406.687 269.474C407.681 269.36 408.655 269.481 409.591 269.837C408.88 275.221 408.64 280.667 408.865 286.177C408.575 280.545 407.848 274.977 406.687 269.474Z" fill="#E8B8B7"/>
<path fill-rule="evenodd" clip-rule="evenodd" d="M371.828 278.188C370.934 281.344 370.934 284.491 371.828 287.629C369.947 284.504 369.947 281.357 371.828 278.188Z" fill="#D59C9D"/>
<path fill-rule="evenodd" clip-rule="evenodd" d="M196.081 297.797C190.744 297.832 185.418 298.074 180.104 298.523C183.185 297.457 186.453 296.973 189.908 297.071C192.102 297.072 194.159 297.315 196.081 297.797Z" fill="#E5B8B9"/>
<path fill-rule="evenodd" clip-rule="evenodd" d="M124.911 351.538C126.878 352.556 128.936 353.525 131.084 354.443C131.557 355.703 131.436 356.913 130.721 358.074C116.94 357.833 103.141 358.075 89.3257 358.8C88.6794 357.143 88.5588 355.448 88.9626 353.716C93.6569 353.624 96.8044 351.445 98.4036 347.18C98.888 336.771 98.888 326.362 98.4036 315.953C98.1319 315.287 97.7688 314.682 97.3142 314.137C95.8683 313.865 94.6577 313.26 93.6831 312.321C91.8014 311.239 91.0752 309.544 91.5044 307.238C94.7296 306.567 97.877 305.598 100.945 304.333C101.43 304.575 101.913 304.817 102.398 305.059C104.858 303.983 107.037 302.531 108.934 300.702C111.679 300.064 114.342 298.974 116.922 297.434C117.89 296.949 118.859 296.949 119.827 297.434C120.415 301.61 120.779 305.846 120.917 310.143C124.177 305.674 128.171 301.922 132.899 298.886C137.637 298.152 142.236 298.636 146.698 300.339C151.469 302.993 153.043 306.987 151.418 312.321C149.001 317.975 144.765 320.033 138.709 318.494C135.859 316.86 133.196 314.924 130.721 312.685C128.738 312.156 126.801 312.276 124.911 313.048C123.441 314.638 122.11 316.332 120.917 318.131C120.432 327.088 120.432 336.045 120.917 345.002C121.235 347.09 121.961 349.027 123.095 350.811C123.583 351.358 124.187 351.6 124.911 351.538Z" fill="#98242A"/>
<path fill-rule="evenodd" clip-rule="evenodd" d="M177.199 299.249C175.278 300.563 173.1 301.29 170.663 301.428C172.54 299.996 174.718 299.269 177.199 299.249Z" fill="#C07B7D"/>
<path fill-rule="evenodd" clip-rule="evenodd" d="M196.081 297.797C201.335 298.907 205.571 301.57 208.79 305.785C209.001 307.566 209.484 309.26 210.243 310.869C210.364 323.222 210.727 335.568 211.332 347.906C211.903 348.445 212.387 349.05 212.784 349.722C215.467 349.924 218.13 349.924 220.773 349.722C222.572 351.129 222.694 352.703 221.136 354.442C213.49 359.816 205.139 361.39 196.081 359.163C193.258 357.431 191.08 355.131 189.545 352.264C179.687 361.356 168.794 362.688 156.865 356.258C151.357 348.498 152.083 341.478 159.044 335.197C168.638 330.183 178.805 326.673 189.545 324.667C190.385 318.986 190.506 313.176 189.908 307.238C187.401 304.983 184.616 304.5 181.557 305.785C180.198 306.046 179.108 306.772 178.289 307.964C177.455 311.853 176.486 315.726 175.384 319.583C171.53 324.624 166.567 325.956 160.496 323.578C153.92 316.156 154.888 309.862 163.401 304.696C165.751 303.399 168.172 302.309 170.663 301.428C173.1 301.29 175.278 300.564 177.199 299.249C177.975 298.571 178.943 298.328 180.104 298.523C185.418 298.074 190.744 297.832 196.081 297.797Z" fill="#98252B"/>
<path fill-rule="evenodd" clip-rule="evenodd" d="M254.905 298.523C254.107 314.134 254.107 329.628 254.905 345.002C255.178 350.72 258.204 353.625 263.983 353.716C264.534 355.364 264.412 356.938 263.62 358.437C251.155 357.904 238.688 358.025 226.219 358.8C222.349 359.022 221.26 357.328 222.951 353.716C226.303 353.289 229.087 351.837 231.303 349.359C232.463 338.99 232.704 328.581 232.029 318.131C231.459 316.834 230.612 315.745 229.487 314.863C227.212 314.578 225.033 313.973 222.951 313.048C222.211 311.645 222.089 310.192 222.588 308.69C231.85 305.696 240.928 302.185 249.822 298.16C251.666 297.582 253.36 297.703 254.905 298.523Z" fill="#98242A"/>
<path fill-rule="evenodd" clip-rule="evenodd" d="M108.934 300.702C107.037 302.53 104.858 303.983 102.398 305.059C101.914 304.817 101.43 304.575 100.946 304.333C97.8772 305.598 94.7297 306.567 91.5046 307.238C91.0754 309.543 91.8016 311.238 93.6832 312.321C90.2279 311.942 89.2591 310.127 90.7783 306.875C96.8176 304.701 102.869 302.644 108.934 300.702Z" fill="#A1494B"/>
<path fill-rule="evenodd" clip-rule="evenodd" d="M458.249 291.261C455.322 303.196 454.596 315.3 456.07 327.572C455.489 326.518 455.126 325.308 454.981 323.941C454.494 316.92 454.494 309.901 454.981 302.88C455.409 298.737 456.498 294.863 458.249 291.261Z" fill="#F6D2D3"/>
<path fill-rule="evenodd" clip-rule="evenodd" d="M181.557 305.785C184.616 304.5 187.401 304.984 189.908 307.238C190.506 313.176 190.385 318.986 189.545 324.667C189.666 319.094 189.545 313.526 189.182 307.964C188.881 308.296 188.518 308.539 188.093 308.69C187.418 307.827 187.176 306.859 187.366 305.785C185.43 305.785 183.493 305.785 181.557 305.785Z" fill="#FBD8D6"/>
<path fill-rule="evenodd" clip-rule="evenodd" d="M428.473 302.88C426.897 313.069 427.871 322.995 431.378 332.656C430.064 331.287 429.214 329.592 428.836 327.572C426.672 319.252 426.549 311.021 428.473 302.88Z" fill="#E3AEB0"/>
<path fill-rule="evenodd" clip-rule="evenodd" d="M254.905 298.523C255.115 313.888 255.115 329.381 254.905 345.001C254.107 329.627 254.107 314.134 254.905 298.523Z" fill="#E3B2B3"/>
<path fill-rule="evenodd" clip-rule="evenodd" d="M188.092 329.751C189.052 332.001 189.536 334.542 189.545 337.376C190.79 342.982 189.096 347.339 184.461 350.448C180.189 351.844 177.163 350.513 175.384 346.454C174.197 340.572 176.012 335.851 180.83 332.293C183.392 331.606 185.813 330.758 188.092 329.751Z" fill="#FCF5F4"/>
<path fill-rule="evenodd" clip-rule="evenodd" d="M493.108 327.572C493.95 334.707 494.066 341.969 493.471 349.359C493.267 350.024 492.904 350.508 492.381 350.811C493.057 343.093 493.296 335.346 493.108 327.572Z" fill="#BE8686"/>
<path fill-rule="evenodd" clip-rule="evenodd" d="M388.531 332.656C393.063 337.077 394.028 342.16 391.436 347.906C390.949 346.222 390.833 344.527 391.073 342.823C391.312 343.549 391.559 344.275 391.799 345.001C392.758 340.603 391.421 337.093 387.805 334.471C388.349 333.984 388.596 333.379 388.531 332.656Z" fill="#F1D5D3"/>
<path fill-rule="evenodd" clip-rule="evenodd" d="M518.526 352.264C519.455 352.907 519.455 353.633 518.526 354.442C517.385 355.03 516.173 355.272 514.895 355.169C516.521 354.71 517.734 353.741 518.526 352.264Z" fill="#E1A8AD"/>
<path fill-rule="evenodd" clip-rule="evenodd" d="M347.136 354.443C349.315 354.293 351.247 354.777 352.946 355.895C350.818 355.848 348.886 355.363 347.136 354.443Z" fill="#D89CA0"/>
<path fill-rule="evenodd" clip-rule="evenodd" d="M620.197 375.503C620.037 373.919 620.647 372.709 622.013 371.872C622.499 368.955 622.739 366.05 622.739 363.157C620.371 359.983 617.343 357.804 613.661 356.621C613.661 357.347 613.661 358.074 613.661 358.8C612.042 357.984 610.349 357.62 608.577 357.71C607.851 358.921 606.885 359.889 605.673 360.615C602.1 361.858 598.715 363.432 595.505 365.336C596.326 364.153 597.292 363.063 598.41 362.068C602.034 360.498 605.426 358.562 608.577 356.258C616.718 354.099 621.925 357.125 624.191 365.336C625.419 369.776 624.09 373.165 620.197 375.503Z" fill="#A14449"/>
<path fill-rule="evenodd" clip-rule="evenodd" d="M124.911 351.537C130.804 350.886 132.983 353.307 131.447 358.8C117.297 358.808 103.256 358.808 89.3257 358.8C103.141 358.075 116.94 357.833 130.721 358.073C131.436 356.913 131.556 355.702 131.084 354.442C128.936 353.524 126.878 352.556 124.911 351.537Z" fill="#E7B9BB"/>
<path fill-rule="evenodd" clip-rule="evenodd" d="M506.906 357.347C495.323 361.469 483.463 362.68 471.321 360.978C483.333 361.157 495.199 359.946 506.906 357.347Z" fill="#EEBEC0"/>
<path fill-rule="evenodd" clip-rule="evenodd" d="M366.744 360.252C374.006 361.188 381.269 361.188 388.531 360.252C385.219 361.371 381.704 361.855 378.001 361.705C374.065 361.831 370.31 361.347 366.744 360.252Z" fill="#FBD6D7"/>
<path fill-rule="evenodd" clip-rule="evenodd" d="M588.243 371.146C588.323 371.594 588.563 371.957 588.97 372.235C588.084 374.844 586.878 377.386 585.338 379.86C584.184 378.388 583.821 376.693 584.249 374.777C585.484 373.416 586.82 372.206 588.243 371.146Z" fill="#BB686B"/>
<path fill-rule="evenodd" clip-rule="evenodd" d="M620.197 375.503C619.711 375.745 619.231 375.988 618.745 376.229C616.69 376.102 615.477 377.07 615.114 379.134C612.935 380.466 610.756 381.797 608.578 383.129C602.746 382.647 597.423 383.979 592.601 387.123C591.555 386.068 590.342 385.342 588.97 384.944C588.577 382.62 587.365 380.926 585.338 379.861C586.878 377.386 588.084 374.845 588.97 372.235C588.563 371.957 588.323 371.594 588.243 371.146C590.872 369.485 593.298 367.549 595.506 365.336C598.715 363.432 602.1 361.858 605.673 360.616C606.886 359.889 607.851 358.921 608.578 357.711C610.35 357.621 612.042 357.984 613.661 358.8C613.661 358.074 613.661 357.348 613.661 356.621C617.343 357.804 620.372 359.983 622.739 363.157C622.739 366.05 622.499 368.955 622.013 371.872C620.647 372.709 620.037 373.919 620.197 375.503Z" fill="#9D2A30"/>
<path fill-rule="evenodd" clip-rule="evenodd" d="M618.745 376.229C618.236 377.839 617.263 379.17 615.84 380.224C613.421 381.676 610.996 383.128 608.578 384.581C605.673 384.823 602.768 385.065 599.863 385.307C596.675 387.1 593.283 387.826 589.696 387.486C589.086 386.752 588.846 385.904 588.969 384.944C590.342 385.342 591.555 386.068 592.601 387.123C597.423 383.979 602.746 382.647 608.578 383.128C610.756 381.797 612.935 380.465 615.114 379.134C615.477 377.07 616.689 376.102 618.745 376.229Z" fill="#A75156"/>
<path fill-rule="evenodd" clip-rule="evenodd" d="M673.212 371.872C673.938 371.872 674.664 371.872 675.39 371.872C675.39 372.598 675.39 373.325 675.39 374.051C679.813 374.974 681.992 377.757 681.926 382.402C681.847 384.386 681.237 386.202 680.111 387.849C673.495 396.159 665.383 402.574 655.782 407.094C654.599 407.453 653.386 407.573 652.151 407.457C650.684 403.309 648.622 399.436 645.978 395.838C645.615 394.16 645.499 392.466 645.615 390.754C647.133 390.71 648.222 389.983 648.883 388.575C650.975 386.314 652.304 383.651 652.877 380.587C654.707 378.876 656.647 377.302 658.687 375.866C663.444 374.073 668.288 372.741 673.212 371.872Z" fill="#9A292E"/>
<path fill-rule="evenodd" clip-rule="evenodd" d="M576.623 384.218C577.618 384.104 578.591 384.225 579.528 384.581C581.315 387.697 583.493 390.48 586.064 392.933C585.81 393.801 585.447 393.801 584.975 392.933C584.481 393.865 584.597 394.713 585.338 395.474C582.622 400.146 578.504 402.446 572.992 402.374C570.436 396.786 570.799 391.219 574.082 385.67C574.677 384.71 575.52 384.226 576.623 384.218Z" fill="#9A282E"/>
<path fill-rule="evenodd" clip-rule="evenodd" d="M572.992 402.373C578.504 402.445 582.622 400.145 585.338 395.474C584.597 394.712 584.481 393.865 584.975 392.932C585.447 393.801 585.81 393.801 586.064 392.932C583.493 390.48 581.315 387.696 579.528 384.581C578.591 384.225 577.618 384.104 576.623 384.218C577.168 382.804 578.141 382.2 579.528 382.402C582.615 386.549 585.759 390.543 588.969 394.385C586.471 397.484 583.566 400.268 580.254 402.736C577.691 403.323 575.273 403.202 572.992 402.373Z" fill="#AC565A"/>
<path fill-rule="evenodd" clip-rule="evenodd" d="M501.822 395.111C499.353 396.146 496.688 396.751 493.834 396.927C492.788 397.702 491.815 398.549 490.929 399.468C490.435 398.929 489.949 398.445 489.477 398.016C490.275 397.248 491.241 396.642 492.381 396.2C495.526 395.777 498.678 395.414 501.822 395.111Z" fill="#D99F9F"/>
<path fill-rule="evenodd" clip-rule="evenodd" d="M409.591 398.742C404.762 399.145 399.918 399.387 395.067 399.468C399.882 398.259 404.726 398.017 409.591 398.742Z" fill="#E3B5B6"/>
<path fill-rule="evenodd" clip-rule="evenodd" d="M519.251 411.814C513.369 413.712 507.32 414.438 501.096 413.993C499.505 412.38 497.566 411.412 495.286 411.088C493.739 410.497 492.047 410.134 490.202 409.999C490.442 409.757 490.689 409.515 490.929 409.273C489.701 405.89 488.975 402.38 488.75 398.742C488.75 398.258 488.99 398.016 489.476 398.016C489.948 398.445 490.435 398.929 490.929 399.469C491.815 398.549 492.788 397.702 493.834 396.927C496.688 396.751 499.353 396.146 501.822 395.111C507.015 394.272 512.345 394.151 517.799 394.748C521.575 396.351 523.514 399.256 523.609 403.463C522.737 405.639 522.127 407.939 521.793 410.362C521.198 411.323 520.355 411.806 519.251 411.814Z" fill="#A1343A"/>
<path fill-rule="evenodd" clip-rule="evenodd" d="M476.405 402.373C474.625 404.748 472.686 406.927 470.595 408.909C471.06 407.268 471.909 405.816 473.137 404.552C473.957 403.36 475.046 402.634 476.405 402.373Z" fill="#BF777A"/>
<path fill-rule="evenodd" clip-rule="evenodd" d="M636.174 396.564C638.462 396.171 640.277 396.897 641.621 398.742C642.434 401.336 643.647 403.756 645.252 406.005C645.739 407.457 645.739 408.909 645.252 410.362C641.192 414.7 636.232 416.274 630.364 415.082C626.74 412.451 625.411 408.941 626.37 404.552C629.144 401.163 632.412 398.5 636.174 396.564Z" fill="#9B2D32"/>
<path fill-rule="evenodd" clip-rule="evenodd" d="M477.857 401.647C482.04 400.927 483.493 402.501 482.214 406.368C483.892 408.803 484.371 411.345 483.667 413.993C482.708 414.117 481.858 413.875 481.125 413.267C480.551 414.93 479.585 415.172 478.22 413.993C477.058 414.999 475.729 415.483 474.226 415.446C473.267 414.398 472.054 413.915 470.595 413.993C470.595 412.299 470.595 410.604 470.595 408.909C472.686 406.927 474.625 404.748 476.405 402.373C476.891 402.132 477.37 401.889 477.857 401.647Z" fill="#9D2B32"/>
<path fill-rule="evenodd" clip-rule="evenodd" d="M488.75 398.742C488.975 402.38 489.702 405.89 490.929 409.272C490.689 409.514 490.442 409.757 490.203 409.999C492.047 410.134 493.739 410.497 495.286 411.088C493.144 411.289 491.089 411.047 489.113 410.362C488.881 407.077 488.518 403.809 488.024 400.558C488.046 399.781 488.285 399.176 488.75 398.742Z" fill="#C4797F"/>
<path fill-rule="evenodd" clip-rule="evenodd" d="M409.592 398.742C414.45 398.217 418.924 399.186 423.027 401.647C424.61 406.145 424.37 410.502 422.3 414.719C416.142 417.296 409.73 418.143 403.056 417.261C401.952 415.587 400.499 414.498 398.698 413.993C397.5 412.957 396.047 412.352 394.341 412.177C392.925 410.918 392.198 409.344 392.162 407.457C392.162 405.037 392.162 402.615 392.162 400.195C393.324 400.389 394.29 400.147 395.067 399.469C399.918 399.387 404.762 399.145 409.592 398.742Z" fill="#A2363C"/>
<path fill-rule="evenodd" clip-rule="evenodd" d="M381.269 403.1C382.786 402.967 384.239 403.21 385.626 403.826C385.931 406.907 386.294 410.054 386.715 413.267C386.025 414.786 385.052 415.028 383.81 413.993C381.777 415.332 379.475 415.817 376.911 415.445C376.098 414.395 375.008 413.668 373.643 413.267C373.396 410.904 373.999 408.726 375.459 406.731C376.78 405.776 377.986 404.686 379.09 403.463C379.78 403.112 380.506 402.991 381.269 403.1Z" fill="#A03439"/>
<path fill-rule="evenodd" clip-rule="evenodd" d="M381.268 403.1C383.048 402.393 384.98 402.151 387.078 402.374C387.863 406.737 387.863 411.094 387.078 415.446C383.592 416.391 380.208 416.391 376.911 415.446C379.475 415.817 381.777 415.332 383.81 413.993C385.052 415.028 386.025 414.786 386.715 413.267C386.294 410.054 385.931 406.907 385.626 403.826C384.239 403.21 382.786 402.968 381.268 403.1Z" fill="#C38185"/>
<path fill-rule="evenodd" clip-rule="evenodd" d="M392.162 407.457C392.199 409.344 392.925 410.918 394.341 412.177C396.048 412.352 397.5 412.956 398.698 413.993C396.432 413.728 394.254 413.123 392.162 412.177C391.211 410.526 391.211 408.953 392.162 407.457Z" fill="#C2888B"/>
<path fill-rule="evenodd" clip-rule="evenodd" d="M572.266 415.445C570.393 414.353 568.337 413.627 566.093 413.267C562.607 413.81 559.1 414.294 555.563 414.719C555.643 414.271 555.883 413.908 556.289 413.63C561.351 412.719 566.435 412.477 571.54 412.904C572.15 413.638 572.39 414.485 572.266 415.445Z" fill="#F6D6D6"/>
<path fill-rule="evenodd" clip-rule="evenodd" d="M477.857 401.648C479.636 400.941 481.568 400.699 483.667 400.921C484.269 405.281 484.632 409.638 484.756 413.993C481.35 416.007 477.842 416.491 474.226 415.446C475.729 415.483 477.058 414.999 478.22 413.993C479.585 415.172 480.551 414.93 481.125 413.267C481.858 413.875 482.708 414.117 483.667 413.993C484.371 411.346 483.892 408.804 482.214 406.368C483.492 402.501 482.04 400.927 477.857 401.648Z" fill="#BF787B"/>
<path fill-rule="evenodd" clip-rule="evenodd" d="M519.252 411.814C517.611 413.089 515.672 413.936 513.442 414.356C509.194 414.95 505.076 414.83 501.096 413.993C507.32 414.438 513.369 413.712 519.252 411.814Z" fill="#C17D7F"/>
<path fill-rule="evenodd" clip-rule="evenodd" d="M572.266 415.445C576.602 420.824 575.875 425.544 570.087 429.607C565.715 431.548 561.598 433.848 557.741 436.506C553.972 437.57 550.094 438.055 546.122 437.958C545.134 434.019 543.929 430.145 542.491 426.339C543.035 425.441 543.275 424.472 543.217 423.434C543.979 423.542 544.706 423.421 545.396 423.071C546.398 421.827 547.603 420.858 549.027 420.166C550 416.891 552.179 415.076 555.563 414.719C559.1 414.294 562.607 413.81 566.093 413.267C568.337 413.627 570.392 414.353 572.266 415.445Z" fill="#9D2C32"/>
<path fill-rule="evenodd" clip-rule="evenodd" d="M539.586 438.684C537.683 439.406 535.744 440.133 533.776 440.863C532.542 440.979 531.329 440.859 530.145 440.5C531.234 440.077 532.2 439.472 533.05 438.684C532.011 435.884 532.738 435.279 535.229 436.869C534.64 437.093 534.161 437.456 533.776 437.958C534.64 438.633 535.606 438.875 536.681 438.684C537.022 434.663 535.323 432.969 531.597 433.601C531.053 434.498 530.813 435.467 530.871 436.506C529.455 436.307 528.366 436.791 527.603 437.958C526.144 435.753 525.541 433.333 525.788 430.696C528.816 429.774 531.844 428.806 534.866 427.791C535.759 427.896 536.601 428.138 537.407 428.517C538.017 431.998 538.744 435.387 539.586 438.684Z" fill="#9A282E"/>
<path fill-rule="evenodd" clip-rule="evenodd" d="M439.367 435.053C440.921 434.572 442.613 434.329 444.45 434.327C447.319 434.228 449.977 434.712 452.439 435.78C448.096 435.363 443.739 435.121 439.367 435.053Z" fill="#E2B0B2"/>
<path fill-rule="evenodd" clip-rule="evenodd" d="M557.742 436.506C554.067 438.688 550.189 439.173 546.122 437.958C550.095 438.055 553.973 437.571 557.742 436.506Z" fill="#E1B3B6"/>
<path fill-rule="evenodd" clip-rule="evenodd" d="M539.586 438.685C538.743 435.388 538.017 431.998 537.407 428.517C536.601 428.138 535.759 427.897 534.865 427.791C531.844 428.806 528.816 429.775 525.788 430.696C525.541 433.333 526.143 435.754 527.603 437.958C528.366 436.791 529.455 436.308 530.871 436.506C530.813 435.467 531.053 434.499 531.597 433.601C535.323 432.969 537.022 434.663 536.681 438.685C535.606 438.875 534.64 438.633 533.776 437.958C534.161 437.456 534.64 437.093 535.229 436.869C532.738 435.279 532.011 435.884 533.05 438.685C532.2 439.472 531.234 440.077 530.145 440.5C531.329 440.859 532.541 440.979 533.776 440.863C529.52 442.718 526.492 441.507 524.698 437.232C523.195 432.812 524.531 429.787 528.692 428.154C530.907 427.661 533.086 427.056 535.229 426.339C536.165 426.773 537.138 427.136 538.133 427.428C538.598 430.539 539.324 433.565 540.312 436.506C540.298 437.396 540.058 438.122 539.586 438.685Z" fill="#A23C40"/>
<path fill-rule="evenodd" clip-rule="evenodd" d="M486.572 452.483C483.769 452.707 481.103 453.191 478.583 453.935C474.909 453.731 471.277 453.973 467.69 454.662C465.17 454.228 462.752 453.744 460.428 453.209C458.837 451.484 458.111 449.426 458.249 447.036C458.663 444.264 458.903 441.48 458.975 438.685C461.11 438.338 463.042 437.612 464.785 436.506C466.971 436.013 468.91 434.923 470.595 433.238C471.561 433.117 472.534 432.996 473.5 432.875C479.426 434.595 485.236 436.532 490.929 438.685C491.968 442.361 491.844 445.993 490.566 449.578C489.281 450.642 487.944 451.61 486.572 452.483Z" fill="#9B292F"/>
<path fill-rule="evenodd" clip-rule="evenodd" d="M439.367 435.053C443.739 435.121 448.096 435.363 452.439 435.78C453.063 436.528 453.543 437.375 453.891 438.321C452.846 441.253 452.236 444.279 452.076 447.399C446.803 449.803 441.967 449.077 437.551 445.221C436.76 441.549 437.362 438.16 439.367 435.053Z" fill="#9B2E34"/>
<path fill-rule="evenodd" clip-rule="evenodd" d="M464.785 436.506C463.042 437.612 461.11 438.338 458.975 438.685C458.902 441.48 458.663 444.264 458.249 447.036C458.111 449.426 458.837 451.484 460.428 453.209C458.481 453.091 457.268 452.123 456.796 450.304C457.421 446.204 457.908 442.088 458.249 437.958C460.311 437.032 462.49 436.548 464.785 436.506Z" fill="#A35255"/>
<path fill-rule="evenodd" clip-rule="evenodd" d="M486.571 452.483C484.146 453.73 481.481 454.214 478.583 453.935C481.103 453.191 483.768 452.707 486.571 452.483Z" fill="#D59C9B"/>
</svg>
